<svg x="0px" y="0px" width="288px" height="288px" viewBox="0 0 288 288" enable-background="new 0 0 288 288">
	<g id="LNC" opacity="0">
		<path fill="#000000" d="M217.446,167.886c1.17-3.521,1.873-6.568-1.878-4.219c-3.757,2.341-9.618-0.24-13.601-3.756
			c-3.993-3.516-41.043-34.471-49.797-37.6c-8.753-3.124-45.652-37.208-50.183-40.179c-4.53-2.973-52.056-47.37-56.591-51.586
			c-4.535-4.221-7.976-5.161-7.976-5.161s0.939,3.438,5.158,7.971c4.224,4.538,48.616,52.063,51.589,56.594
			c2.973,4.538,37.055,41.434,40.179,50.186c3.129,8.754,34.082,45.806,37.602,49.793c3.521,3.983,6.097,9.85,3.752,13.605
			c-2.346,3.747,0.703,3.044,4.219,1.874c3.521-1.176-5.515,10.21,4.043,9.558c9.563-0.648,2.054-2.06,3.816-3.817
			c1.753-1.758,12.426-12.425,12.426-12.425s1.285-2.23,4.575,1.055c3.279,3.284,23.218,20.4,22.982,23.213
			c-0.236,2.817-9.382,9.15,11.606,8.799c0,0,2.691,0.352,3.521,1.873c0.818,1.522,2.461,7.157,6.213,3.4
			c3.746-3.757-1.874-5.394-3.4-6.218c-1.521-0.813-1.873-3.516-1.873-3.516c0.352-20.983-5.982-11.843-8.8-11.606
			c-2.813,0.236-19.934-19.702-23.218-22.977c-3.279-3.285-1.055-4.581-1.055-4.581s10.672-10.667,12.43-12.425
			c1.764-1.758,3.164,5.745,3.813-3.817C227.651,162.366,216.271,171.401,217.446,167.886z"/>
	</g>
	<g id="ARC" opacity="0">
		<path fill="#000000" d="M82.417,208.627c-25.172-49.871,26.267-84.101,26.267-84.101v-5.007l-5.007,0.002v-5.316l5.544-5.55
			L96.875,96.303c1.326,6.489-14.771,1.958-14.771,1.958c12.345,2.971,6.253,22.824,6.253,22.824
			c-54.407,90.053-15.323,88.174-15.323,95.99c0,7.814-0.939,7.814-5.158,12.038c-4.224,4.219-1.878,5.313-1.878,5.313
			c6.88,6.876,21.571-8.909,23.604-8.909c2.039,0,5.168-5.008,0-5.008c-5.158,0,0-8.438,0-8.438l-3.435-3.445
			C84.139,210.666,82.417,208.627,82.417,208.627z"/>
		<polygon fill="#000000" points="148.62,148.053 87.886,208.788 89.297,210.194 150.032,149.459"/>
		<polygon fill="#000000" points="79.006,62.33 79.006,52.323 50.073,39.651 62.744,68.585 72.749,68.585 209.853,205.694 
			214.549,223.825 234.874,244.155 237.671,227.25 254.571,224.452 234.241,204.127 216.11,199.437"/>
		<path fill="#000000" d="M239.534,57.456c-4.224,4.221-4.224,5.158-12.038,5.16S221.55,23.53,131.5,77.939
			c0,0-19.848,6.095-22.816-6.255c0,0,4.53,16.099-1.959,14.771l12.355,12.353l5.545-5.552h5.318l-0.005,5.007h5.007
			c0,0,34.232-51.436,84.104-26.267c0,0,2.034,1.723,0,3.751l3.44,3.44c0,0,8.442-5.161,8.442,0c0,5.16,5.002,2.037,5.002,0
			s15.795-16.725,8.915-23.605C244.849,55.582,243.748,53.234,239.534,57.456z"/>
		<polygon fill="#000000" points="159.881,139.61 220.615,78.873 219.209,77.469 158.47,138.204"/>
	</g>
	<g id="GLA" opacity="0">
		<path fill="#000000" d="M242.407,220.47c-2.1-2.1-3.671,2.622-6.303,0c-2.627-2.627-31.078-31.711-31.5-33.811
			c-0.417-2.104,9.457-10.501,9.452-12.601c0-2.1-0.241-10.919-3.602-7.559c-3.359,3.36-11.335,9.869-13.229,9.869
			c-1.889,0-5.67,0.417-9.03-2.938c-3.359-3.359-0.211-11.973-5.248-13.444C177.9,158.515,85.294,61.913,79.83,54.354
			c-4.108-5.695-19.291-10.431-26.538-12.423l-1.999,2.001c1.984,7.248,6.73,22.427,12.425,26.541
			c7.554,5.457,104.153,98.071,105.625,103.114c1.472,5.042,10.085,1.883,13.444,5.248c3.355,3.365,2.938,7.142,2.938,9.03
			c0,1.894-6.504,9.874-9.869,13.233c-3.354,3.36,5.459,3.596,7.559,3.596s10.502-9.868,12.602-9.446
			c2.099,0.422,31.184,28.873,33.81,31.5c2.632,2.621-2.099,4.203,0,6.303c2.039,2.044,4.987,7.704,12.566,0.628l0.015,0.02
			c0.126-0.11,0.206-0.221,0.316-0.331c0.11-0.115,0.221-0.201,0.332-0.316l-0.021-0.025
			C250.111,225.457,244.451,222.509,242.407,220.47z"/>
		<path fill="#000000" d="M158.932,131.858c27.938-27.258,60.77-58.292,65.054-61.385c5.695-4.113,10.437-19.293,12.42-26.541
			l-1.998-2.001c-7.242,1.992-22.425,6.728-26.538,12.423c-3.094,4.279-34.062,37.045-61.303,64.969
			C150.82,123.66,154.954,127.853,158.932,131.858z"/>
		<path fill="#000000" d="M128.823,137.335c-12.853,12.902-22.535,22.204-24.072,22.651c-5.037,1.472-1.883,10.085-5.248,13.444
			c-3.36,3.355-7.137,2.938-9.03,2.938s-9.869-6.509-13.229-9.869s-3.601,5.459-3.601,7.559s9.874,10.497,9.452,12.601
			c-0.422,2.1-28.873,31.184-31.5,33.811c-2.632,2.622-4.204-2.1-6.303,0c-2.044,2.039-7.709,4.987-0.628,12.556l-0.02,0.025
			c0.11,0.115,0.221,0.201,0.332,0.316c0.11,0.11,0.19,0.221,0.316,0.331l0.02-0.02c7.579,7.076,10.521,1.416,12.566-0.628
			c2.094-2.1-2.627-3.682-0.005-6.303c2.622-2.627,31.711-31.078,33.811-31.5c2.099-0.422,10.501,9.446,12.601,9.446
			c2.099,0,10.913-0.235,7.559-3.596c-3.36-3.359-9.864-11.34-9.864-13.233c0-1.889-0.422-5.665,2.933-9.03
			c3.36-3.365,11.973-0.206,13.445-5.248c0.447-1.542,9.789-11.256,22.726-24.152C137.155,145.547,133.056,141.501,128.823,137.335
			z"/>
	</g>
	<g id="PGL" opacity="0">
		<path fill="#000000" d="M236.592,179.95c-1.105-1.105-3.315-1.547-9.281,3.762c-5.977,5.309-16.363,14.811-10.617,8.623
			c5.745-6.188,7.513-11.723,12.164-13.711c4.641-1.989,3.535-3.536,0-4.42c-3.536-0.884-7.523-7.297-8.85-9.061
			c-1.326-1.768-8.839,14.148-12.375,20.12c-9.954,18.788-20.119,18.567-20.119,18.567c12.375-3.536,25.423-34.322,27.19-37.195
			c1.768-2.878,5.083-3.982,0-3.536c-5.082,0.442-26.759-21.227-30.295-24.099c-3.535-2.878-4.861-3.317-14.363-1.768
			c-12.164,4.201-6.64,18.349-6.419,22.989c-1.758,6.409-15.029,6.414-15.029,6.414c10.831-1.326,11.052-5.088,11.052-5.088
			c-8.839-35.151,21.445-27.537,21.445-27.537c-2.21-0.568-1.326,0.344-2.21-7.172c-0.884-7.516-7.955-10.17-15.699-9.731
			c-7.734,0.444-24.542,29.411-24.542,29.411c7.519-20.564,21.669-31.173,21.669-31.173c-3.978-1.329-4.42-7.079-6.851-19.683
			c-2.431-12.601-9.068-21.222-16.144-26.31c-7.071-5.085-13.264-2.651-31.174-2.651c-17.904,0-22.771,19.233-22.771,19.233
			c3.762-19.1,13.264-23.57,30.953-22.247c17.688,1.329,14.153-2.428,14.153-2.428c-24.529-32.336-27.422-32.281-52.845-14.372
			C50.21,64.795,57.945,88.451,52.642,91.768c-5.309,3.314-19.678-1.326-8.624,21.006c11.054,22.329,51.956,43.772,57.928,44.415
			c5.971,0.633,11.275-1.085,14.59,11.079c3.319,12.164,54.615,63.011,57.488,66.988c2.873,3.987,0.663,21.445,9.724,7.965
			c9.07-13.489,52.182-54.643,55.938-56.189S237.696,181.06,236.592,179.95z M121.688,132.067c0.07,0.022,0.13,0.058,0.211,0.078
			C121.899,132.145,121.819,132.115,121.688,132.067c-14.977-4.144-9.738-26.287-9.738-26.287
			c-12.109,23.215-26.202,26.365-26.202,26.365c10.446-4.644,23.545-24.208,26.533-34.325c2.988-10.115-4.807-15.752-4.807-15.752
			c5.304,1.657,7.956,8.787,7.956,8.787c1.989,3.485,6.469,2.157,6.469,2.157c-6.137,1.16-7.463,9.287-7.463,9.287
			C107.802,125.907,119.96,131.414,121.688,132.067z"/>
	</g>
	<g id="THM" opacity="0">
		<path fill="#000000" d="M218.566,182.974c-18.347-3.979-3.319,14.811-11.275,14.363c-7.96-0.441-3.54-5.077-1.325-11.27
			c26.754-32.726-9.729-29.854-11.502-27.196c-1.768,2.651-8.176,8.182-7.071,3.762c1.105-4.425-2.872-11.06-6.855,0
			c-3.982,11.049-32.499,10.392-32.499,10.392s-28.522,0.657-32.504-10.392c-3.978-11.06-7.96-4.425-6.851,0
			c1.105,4.42-5.304-1.11-7.077-3.762c-1.773-2.657-38.255-5.529-11.496,27.196c2.21,6.192,6.629,10.828-1.326,11.27
			c-7.965,0.447,7.071-18.342-11.28-14.363c-12.375,11.712-6.629,9.507,0,11.938c3.154,1.15,3.832,0.965,3.948,0.849
			c-0.061,0.101-0.07,0.503,0.698,1.809c2.215,3.757,3.978,5.304,7.298,4.198c3.314-1.109,16.583,40.239,58.59,40.46
			c42.007-0.221,55.275-41.569,58.59-40.46c3.315,1.105,5.083-0.441,7.298-4.198c0.769-1.306,0.759-1.708,0.698-1.809
			c0.11,0.116,0.793,0.302,3.942-0.849C225.201,192.48,230.946,194.686,218.566,182.974z M105.147,176.118
			c-8.85-2.215-7.082,3.982-7.082,3.982c-1.105-3.104,8.402-4.209,4.425,2.651c-3.983,6.851-12.38-4.419-12.38-4.419
			c-14.595-20.125,7.072-16.147,8.619-15.479c1.547,0.663,4.872,5.083,4.872,5.083S106.925,171.794,105.147,176.118z
			M193.58,182.752c-3.978-6.86,5.535-5.755,4.43-2.651c0,0,1.763-6.197-7.081-3.982c-1.788-4.324,1.547-8.182,1.547-8.182
			s3.319-4.42,4.866-5.083c1.547-0.668,23.219-4.646,8.624,15.479C205.966,178.333,197.563,189.603,193.58,182.752z"/>
		<path fill="#000000" d="M130.731,40.332c0,0-19.728,15.419-13.927,36.646c0,0-4.475,0-6.966-4.809
			c-2.481-4.809-6.298-9.287-13.259-10.612c0,0,7.624,2.32,7.79,9.949c0.166,7.626,1.989,14.258,6.464,12.27
			c0,0,6.137,21.224,0.834,24.873c0,0-4.812,0-4.978-3.98c-0.166-3.978,3.149-11.438-10.11-10.943c0,0,4.807,0.829,4.972,6.135
			c0.166,5.309-7.634,31.673,7.624,36.316s24.378,18.904,27.527,25.705c0,0,3.982-27.033-15.584-36.814
			c-19.567-9.786,7.132-11.109,4.972-26.036c0,0,2.491,7.46-1.823,13.101c-4.314,5.638-4.143,8.787,3.646,14.427
			c7.794,5.637,8.458,10.943,9.125,13.595c0,0-1.165-11.441,4.641-18.404c5.801-6.963,10.943-14.261,2.652-24.707
			C136.04,86.595,113.987,74.157,130.731,40.332z"/>
		<path fill="#000000" d="M154.943,112.959c0,0,3.696,20.893-6.277,26.202c-9.975,5.303-5.168,17.244-2.677,21.222
			c0,0-5.304-12.27,8.789-14.093c14.092-1.826,10.617-10.778,9.617-13.432c0,0,0.332,2.486-2.817,4.975
			C161.578,137.833,163.401,132.027,154.943,112.959z"/>
		<path fill="#000000" d="M57.777,78.966c0,0,12.767,0.498,16.413,13.267c3.646,12.767-1.658,24.542,8.126,27.193
			c9.783,2.654,11.938,2.82,13.43,7.794c0,0,1.165,7.96,7.629,10.281s14.098,6.632,15.092,14.264c0,0-0.994-9.123-26.869-6.472
			c-25.865,2.654-50.575-12.932-32.831-27.856c0,0-3.641,11.109,5.64,4.312c0,0-8.789-5.309-2.155-17.741
			C68.886,91.569,66.892,82.78,57.777,78.966z"/>
		<path fill="#000000" d="M167.213,159.223c0,0,11.109-11.109,5.309-19.07c-5.806-7.958,8.624-19.896,14.761-26.365
			c6.133-6.466,11.934-15.089,9.115-23.215c0,0,1,5.14-1.988,10.529c-2.983,5.389-18.407,15.006-22.385,24.956
			c0,0,2.486-37.64,16.584-47.092c14.093-9.452,2.32-16.25,1.326-18.075c-0.995-1.823-5.475-6.132-0.166-13.098
			c0,0-0.668,8.289,4.641,10.612c5.309,2.323,22.219,10.28,11.606,29.682c0,0,10.612,1.826,13.099-5.638
			c2.49-7.463,6.639-9.12,10.446-8.455c0,0-4.973,2.152-5.636,6.301c-0.662,4.146,3.817,26.862-20.893,38.471
			c0,0,9.121-1.825,13.596-7.131c0,0-3.646,12.769-15.092,15.586c-11.441,2.818-12.597,8.455-13.762,11.941
			C186.619,142.642,178.162,151.765,167.213,159.223z"/>
		<path fill="#000000" d="M224.257,104.667c0,0,6.8,16.582-2.652,21.89c-9.451,5.306-20.727,3.646-32.173,19.896
			c0,0,10.783-11.44,22.39-3.314c11.606,8.124,31.174-11.443,32.002-20.064c0,0-2.822,4.643-12.435,5.803
			C231.389,128.878,238.521,119.925,224.257,104.667z"/>
	</g>
    <g id="CNJ" opacity="0">
		<circle fill="#000000" cx="203.233" cy="138.375" r="8.709"/>
		<path fill="#000000" d="M194.856,150.645c0,5.178-4.199,9.366-9.372,9.366s-9.361-4.188-9.361-9.366
			c0-5.173,4.188-9.367,9.361-9.367S194.856,145.472,194.856,150.645z"/>
		<path fill="#000000" d="M212.273,160.011c0,4.812-3.897,8.709-8.709,8.709s-8.708-3.897-8.708-8.709
			c0-4.801,3.896-8.703,8.708-8.703S212.273,155.21,212.273,160.011z"/>
		<circle fill="#000000" cx="102.744" cy="80.668" r="9.035"/>
		<circle fill="#000000" cx="67.839" cy="150.232" r="7.629"/>
		<path fill="#000000" d="M221.555,73.788c0,4.397-3.565,7.96-7.966,7.96c-4.389,0-7.955-3.563-7.955-7.96s3.566-7.958,7.955-7.958
			C217.989,65.83,221.555,69.391,221.555,73.788z"/>
		<path fill="#000000" d="M162.522,59.693c0,4.58-3.717,8.292-8.287,8.292c-4.58,0-8.294-3.712-8.294-8.292
			c0-4.575,3.714-8.29,8.294-8.29C158.806,51.403,162.522,55.118,162.522,59.693z"/>
		<path fill="#000000" d="M177.448,215.563c0,0,6.801,11.109,5.636,19.732c-1.155,8.623,2.651,7.629,6.629,6.469
			c3.988-1.16,13.27-20.396,23.876-20.728c10.617-0.336,11.12-3.651,13.108-1.491c1.989,2.154,3.978-0.332,0-2.32
			c-3.978-1.994-11.109-1.331-14.424-4.148c-3.325-2.817-37.647-26.196-33.499-33.83c4.139-7.624,6.138-10.115,9.944-8.287
			c3.817,1.823,2.651-1.326,0.994-2.24s-6.469-4.058-4.229-5.555c2.24-1.491-3.063-0.166-8.036-5.304
			c-4.981-5.143-4.981-1.988-4.65,0c0.342,1.989-2.149-0.994-1.818-4.812c0.332-3.816-2.32-2.485-3.646-2.405
			c-1.326,0.085-0.171-8.372,3.646-11.026c3.817-2.652,0.663-11.938,1.487-14.59c0.833-2.654,11.611-9.287,17.417-16.584
			s6.469-20.727,10.115-21.224s4.359-1.329,5.635-2.434c0,0-3.043,0.439-5.806,0c-2.752-0.439-5.524,3.87-6.63,4.919
			c-1.104,1.05-4.529,11.885-3.867,10.228c0.663-1.66-11.942,9.061-15.036,9.395c-3.094,0.331-8.066-19.675-7.956-21.664
			c0.111-1.991-4.088-3.541-3.816-5.529c0.281-1.992,4.479-4.978,6.8-4.533c2.32,0.444-1.104-1.994-0.994-3.096
			c0.11-1.105-0.673,1.772-1.768,2.212c-1.105,0.439-6.077,2.212-6.86,1.329c-0.773-0.889-14.924-8.515-16.355-10.838
			c-1.437-2.32-1.768-1.107-1.552,0c0.221,1.107,2.883,3.873,3.435,5.088c0.548,1.213,10.826,7.185,11.931,8.952
			c1.105,1.771,4.641,5.858,4.751,8.458c0.111,2.599,5.977,26.809,3.656,28.467c-2.33,1.66-2.982,4.643-3.656,6.408
			c-0.662,1.771-0.662,13.708-1.657,15.258c-0.994,1.549-3.314,0.663-2.762,2.765c0.552,2.102-0.433,8.839,0.441,9.17
			c0.884,0.337,4.099,3.651,3.325,4.978c-0.773,1.331-6.087,7.187-5.646,8.292c0.442,1.104,4.089,7.297,3.426,8.954
			c-0.663,1.663-23.542-3.978-25.31-6.745c-1.768-2.762-21.556-19.675-24.539-21c-2.983-1.329-5.083-12.938-6.303-17.689
			c-1.22-4.754,0.055-20.782,0-21.611c-0.055-0.829,1.934-4.809,4.254-5.14s1.326-0.997,1.657-2.489c0,0-2.652,0.997-5.143,1.329
			c-2.481,0.332-3.807,2.817-4.972,1.492c-1.155-1.329-6.469-4.643-10.446-6.8c0,0-2.32,2.323-0.829,3.317
			c1.492,0.994,11.109,7.792,11.109,9.121c0,1.328-2.154,20.064-1.989,21.887c0.166,1.826,1,21.061,2.818,22.719
			c1.828,1.657,25.207,24.207,24.875,26.035c-0.332,1.823-21.229-0.663-24.213-3.651c-2.983-2.983-19.728-13.761-18.904-16.91
			c0.833-3.153,1.497-7.96,1.165-10.78c-0.332-2.817-2.32-0.334-3.817-3.317c0,0,0.829,8.125-0.995,12.269
			c-1.823,4.148-6.469,2.32-7.292,7.298c0,0,2.813,0.994,3.48-0.994c0.663-1.994,2.817-2.155,3.646-1.492
			s17.744,18.402,19.235,19.732c1.492,1.321,20.566,15.253,27.362,14.59c6.795-0.662,14.429-6.961,30.176-0.828
			C169.814,200.476,161.196,200.642,177.448,215.563z"/>
		<path fill="#000000" d="M88.185,55.163c0,0-32.394,18.239-3.978,36.811C84.207,91.974,80.114,71.302,88.185,55.163z"/>
		<path fill="#000000" d="M110.072,98.053c0,0,8.176-20.564,34.046-15.145c0,0-7.85,6.629-10.612,11.165
			C130.739,98.606,125.55,103.467,110.072,98.053z"/>
		<path fill="#000000" d="M101.554,52.619c0,0,18.573-16.252,37.256,11.604c0,0-12.827,3.096-18.628-1.989
			C114.381,57.151,108.851,50.296,101.554,52.619z"/>
		<path fill="#000000" d="M162.522,30.95c0,0,6.358,15.476,6.579,20.453c0.221,4.972-4.198,13.485-0.663,19.567
			C168.438,70.97,188.558,49.194,162.522,30.95z"/>
		<path fill="#000000" d="M199.165,47.905c0,0-25.754,16.436-3.425,34.782c0,0-4.792-9.726-2.843-13.927
			C194.856,64.557,198.834,56.566,199.165,47.905z"/>
		<path fill="#000000" d="M208.235,84.566c0,0,21.335,0.332,23.876-2.817c2.542-3.152,6.961-5.251,10.396-3.814
			c0,0-0.11,9.73-7.854,10.612c-7.734,0.881-15.479,0.663-17.468-0.997C215.196,85.894,211.108,85.229,208.235,84.566z"/>
		<path fill="#000000" d="M50.597,105.625c0,0,15.253-1.823,23.379,10.946c8.121,12.767,4.304,22.55,6.384,24.873
			c0,0-8.87-6.798-10.195-15.587C68.838,117.068,54.409,105.293,50.597,105.625z"/>
		<path fill="#000000" d="M69.16,164.592c0,0-21.365,11.928-17.407,36.105c0,0,11.155-7.82,12.702-23.364
			C66.006,161.789,67.131,168.64,69.16,164.592z"/>
	</g>
	<g id="ACN" opacity="0">
		<path fill="#000000" d="M212.761,120.834c0-36.643-28.457-66.568-64.462-69.069h0.286c0,0-1.958-7.795,0-11.318h-0.005
			c1.336-1.323,2.16-3.151,2.16-5.178c0-4.03-3.265-7.295-7.298-7.295c-4.028,0-7.292,3.265-7.292,7.295
			c0,2.999,1.808,5.57,4.395,6.69l0.005,0.002c0.045,0.018,0.085,0.038,0.135,0.055c0.738,0.301,6.957,2.86,2.351,2.705
			c-4.896-0.166-4.977-1.16-3.736,1.74c1.245,2.903-1.015,5.243-1.507,5.286c-0.131,0.013,0.221,0.018,0.793,0.018
			c-10.753,0.751-20.817,3.925-29.662,9.022C93.576,51.976,81.593,49.018,76.61,54c-4.982,4.979-2.024,16.965,6.785,32.311
			c-5.856,10.17-9.261,21.938-9.261,34.523c0,34.446,25.157,62.932,58.083,68.316c-2.275,2.622-3.697,5.987-3.697,9.733
			c0,3.234,4.621,5.184,10.21,5.876l-0.256,0.302c0,0-19.226,13.35-17.664,15.348c1.572,1.979,16.75,0.573,17.081,1.647
			c0.331,1.085,2.069,3.817-7.549,3.074s-15.001,0.743-18.075,0.663c-3.063-0.081-19.316,11.44-7.875,11.44
			c11.446,0,77.193,0,77.193,0s7.047,0,3.31-4.39c-3.727-4.399-35.824-28.186-35.824-28.186h-0.015
			c5.183-0.793,9.316-2.712,9.316-5.775c0-3.746-1.427-7.111-3.696-9.733c8.367-1.366,16.217-4.208,23.293-8.276
			c15.349,8.809,27.321,11.772,32.309,6.79c4.982-4.982,2.024-16.966-6.795-32.313C209.355,145.188,212.761,133.416,212.761,120.834z
			M201.485,120.834c0,8.354-1.803,16.285-4.987,23.469c-7.94-11.646-18.502-24.509-30.968-37.386
			c-1.436-18.721-5.73-34.38-11.516-43.114C181.015,68.781,201.485,92.393,201.485,120.834z M138.968,169.644
			c-7.358,0-13.596-13.852-15.84-33.077c0.763,0.776,1.486,1.549,2.26,2.323c7.865,7.855,15.765,14.984,23.45,21.322
			C146.069,166.118,142.664,169.644,138.968,169.644z M100.587,83.491c3.958-3.96,12.802-2.212,23.575,3.709
			c-1.798,8.367-2.953,17.97-3.249,28.283c-0.412,1.72-0.683,3.5-0.683,5.351c0,1.846,0.271,3.626,0.683,5.346
			c0.035,1.316,0.095,2.612,0.161,3.897C103.093,110.026,94.018,90.065,100.587,83.491z M138.968,72.022
			c5.946,0,11.154,9.045,14.123,22.643c-7.162-6.7-14.269-12.767-21.129-18.115C134.091,73.672,136.461,72.022,138.968,72.022z
			M140.052,97.96c-7.744,1.143-14.203,6.064-17.478,12.877c0.603-8.467,1.974-16.102,3.867-22.336
			C130.776,91.05,135.367,94.234,140.052,97.96z M122.575,130.824c0.367,0.764,0.758,1.509,1.206,2.225
			c-0.377-0.407-0.749-0.809-1.115-1.21C122.635,131.5,122.6,131.168,122.575,130.824z M131.228,140.495
			c3.561,2.215,7.72,3.553,12.214,3.553c3.888,0,7.498-1.05,10.713-2.732c-0.879,5.52-2.095,10.479-3.576,14.647
			C144.372,151.875,137.782,146.659,131.228,140.495z M165.982,126.181c0.151-0.638,0.236-1.295,0.337-1.961
			c13.892,17.488,20.26,33.682,14.469,39.468c-3.5,3.495-10.808,2.531-19.883-1.808C163.758,152.016,165.596,139.683,165.982,126.181
			z M132.875,63.804c-1.753,2.646-3.355,5.954-4.796,9.766c-2.757-2.064-5.454-3.988-8.101-5.791
			C124.056,65.973,128.371,64.632,132.875,63.804z M85.41,120.834c0-8.359,1.803-16.29,4.987-23.469
			c7.935,11.647,18.502,24.506,30.962,37.384c1.441,18.713,5.73,34.373,11.511,43.111C105.871,172.878,85.41,149.264,85.41,120.834z
			M154.024,177.86c1.748-2.651,3.35-5.956,4.791-9.773c2.758,2.069,5.455,3.988,8.102,5.796
			C162.839,175.69,158.524,177.026,154.024,177.86z"/>
	</g>
	<g id="BLM" opacity="0">
		<path fill="#000000" d="M232.232,123.15c0,0-7.272-4.924-9.854,2.815c-2.576,7.737-23.68,2.107-24.146-1.175
			c-0.473-3.282,41.268-66.599,43.613-71.759c2.351-5.158,7.031-19.228,4.224-22.043c-2.817-2.813-16.89,1.876-22.043,4.221
			c-5.163,2.348-68.479,44.088-71.759,43.619c-3.289-0.469-8.915-21.576-1.18-24.152c7.739-2.584,2.817-9.854,2.817-9.854
			c-25.559-11.958-101.772,79.734-101.772,79.734c-27.718,27.71-27.718,72.661,0,100.364c27.708,27.713,72.653,27.713,100.361,0
			C152.493,224.92,244.195,148.711,232.232,123.15z M69.956,207.101c-17.875-17.88-17.875-46.849,0-64.72
			c17.869-17.872,46.843-17.872,64.723,0c17.869,17.872,17.869,46.84,0,64.72C116.799,224.97,87.825,224.97,69.956,207.101z
			M152.493,124.556c-14.791-14.793-34.479-21.608-53.85-20.612l0.166-0.07c-1.401-8.721,32.349-33.958,32.349-33.958
			c-3.751,5.161,8.91,30.486,18.06,30.255c9.141-0.239,70.112-42.449,70.112-42.449s-42.213,60.971-42.444,70.119
			c-0.23,9.143,25.097,21.805,30.25,18.055c0,0-25.237,33.753-33.956,32.347l-0.07,0.161
			C174.108,159.037,167.294,139.349,152.493,124.556z"/>
	</g>
	<g id="SMN" opacity="0">
		<path fill="#000000" d="M221.213,98.895c-8.663,1.698-8.618,7.062-8.618,7.062l-0.04,0.02c0.065,5.675-0.241,11.21-0.844,16.614
			c-0.196,0.341-2.271,3.917-5.133,5.002c-3.014,1.135-77.605-26.85-110.26-57.385c0,0-3.917-4.52-8.357-1.215
			c-4.43,3.294-1.22,8.347-1.22,8.347c19.893,40.038,25.317,119.531,23.369,122.082c-1.858,2.432-5.876,3.396-6.268,3.486
			c-5.354-0.975-10.737-2.271-16.151-3.958l-0.03,0.03c0,0-5.128-1.577-9.236,6.237c0,0-3.987,8.739,2.175,11.18
			c38.823,12.154,77.715,8.729,107.247-13.269l0,0c0,0,0,0,0.005,0c29.526-21.988,43.966-58.259,43.448-98.94
			C230.721,97.579,221.213,98.895,221.213,98.895z M199.587,162.206c-5.69,10.245-13.233,19.155-22.701,26.206l0,0h-0.005
			c-9.467,7.052-20.164,11.723-31.615,14.233c-14.304,1.064-14.715-9.08-14.715-9.08c-2.371-44.84-10.19-71.498-14.932-83.933
			l0.005-0.01c0,0-1.818-5.273,2.978-2.762c0.005,0,0.005,0,0.005,0c10.396,8.036,33.76,23.344,76.496,38.642
			C195.103,145.502,204.705,148.796,199.587,162.206z"/>
	</g>
	<g id="SCH" opacity="0">
		<path fill="#000000" d="M228.028,107.995c-8.623,0-9.954,5.313-9.954,9.291c0,3.978,9.291,8.95,9.291,24.871
			c0,15.92-12.274,26.528-29.521,26.528c-17.242,0-27.854-17.246-27.854-27.854c0-10.617,4.641-25.202,25.534-35.488
			c20.893-10.276,10.948-15.258-10.281-23.213c-21.225-7.955-31.505-10.617-41.454-10.938c-9.949,0.321-20.23,2.983-41.454,10.938
			c-21.225,7.956-31.174,12.938-10.281,23.213c20.893,10.286,25.533,24.871,25.533,35.488c0,10.607-10.607,27.854-27.854,27.854
			s-29.521-10.607-29.521-26.528c0-15.921,9.292-20.893,9.292-24.871c0-3.978-1.326-9.291-9.954-9.291
			c-8.619,0-19.236,8.95-19.236,34.162c0,25.202,18.904,49.088,49.751,49.088c30.837,0,49.41-28.527,49.41-50.746
			c0-22.219-18.573-34.162-22.55-39.465c-3.978-5.304,26.864-7.624,26.864-7.624s30.842,2.32,26.864,7.624
			c-3.978,5.303-22.55,17.247-22.55,39.465c0,22.218,18.572,50.746,49.409,50.746c30.848,0,49.751-23.887,49.751-49.088
			C247.264,116.945,236.646,107.995,228.028,107.995z"/>
	</g>
	<g id="NIN" opacity="0">
		<path fill="#000000" d="M230.866,171.823c-8.006,5.906-55.1,31.762-39.928,5.475c5.324-9.221,7.785-19.296,7.77-29.229l0.051,0.05
			c0,0,2.656-83.903-86.229-95.514c0,0-5.972,1.326,3.149,5.303c9.121,3.988,55.054,31.842,24.71,31.842l0.04,0.04
			c-10.256,0-20.355,2.712-29.24,7.845l0.015-0.06c0,0-73.989,39.646-39.601,122.424c0,0,4.134,4.51,3.019-5.384
			c-1.11-9.885,0.045-63.593,15.218-37.316l0.015-0.061c4.957,8.608,12.129,16.102,21.35,21.436c0,0,71.337,44.247,125.829-26.92
			C237.033,171.753,238.866,165.917,230.866,171.823z M109.944,130.54c9.708-16.814,31.204-22.57,48.023-12.867
			c16.815,9.713,22.575,31.209,12.867,48.023c-9.703,16.814-31.208,22.58-48.023,12.867
			C105.996,168.851,100.235,147.354,109.944,130.54z"/>
	</g>
	<g id="DRG" opacity="0">
		<path fill="#000000" d="M198.061,97.425c-11.934,3.98-12.817,10.838-17.91,10.838c-5.082,0-4.861-7.96-4.861-7.96
			s0-27.859,0-43.337c0-15.479,2.651-16.358-6.851-19.012c-9.512-2.654-8.187,4.643-8.187,4.643s0,47.755,0,58.59
			c0,10.831-16.134,11.275-16.134,11.275s-16.142-0.444-16.142-11.275c0-10.835,0-58.59,0-58.59s1.331-7.297-8.181-4.643
			c-9.502,2.654-6.851,3.533-6.851,19.012c0,15.479,0,43.337,0,43.337s0.221,7.96-4.861,7.96c-5.088,0-5.977-6.858-17.91-10.838
			c-11.943-3.978-13.49,8.624-11.059,11.057c2.436,2.434,27.417,60.359,29.411,66.767c1.989,6.408,19.451,59.042,20.782,60.589
			c1.326,1.547,2.431,9.281,14.811,9.281c12.377,0,13.482-7.734,14.809-9.281c1.325-1.547,18.793-54.181,20.782-60.589
			c1.988-6.408,26.979-64.333,29.41-66.767C211.55,106.049,210.003,93.448,198.061,97.425z M181.697,134.131
			c-2.651,0,2.431,2.87,0,5.303c-2.431,2.436-21.887,26.282-26.307,26.282s-3.314,8.427-1.104,8.427
			c2.209,0,5.082,3.315,5.082,14.374c0,3.405-1.477,8.106-3.485,12.958c-11.006,23.454-22.131,2.803-23.492,0.09
			c-2.029-4.881-3.526-9.622-3.526-13.048c0-11.059,2.873-14.374,5.083-14.374s3.315-8.427-1.105-8.427
			c-4.419,0-23.876-23.846-26.312-26.282c-2.431-2.433,2.657-5.303,0-5.303c-2.651,0-6.634-5.751-3.094-5.751
			c3.541,0,6.193-0.223,6.193-6.19c0-5.969,2.431-4.424,7.071-4.424s5.64,0.115,7.297,1.77c1.657,1.66,0.216,9.068,20.12,9.068
			c19.9,0,18.454-7.408,20.111-9.068c1.668-1.655,2.662-1.77,7.303-1.77s7.071-1.544,7.071,4.424c0,5.967,2.652,6.19,6.198,6.19
			C188.337,128.38,184.35,134.131,181.697,134.131z"/>
	</g>
	<g id="BRD" opacity="0">
		<path fill="#000000" d="M195.213,45.51H86.108c0,0-24.549,1.326-24.549,23.878c0,22.55,18.578,6.961,20.898,4.641
			s1-3.98,5.64-3.98s101.149,0,101.149,0s5.967-0.661,5.967,9.949c0,10.615,0,101.147,0,101.147s-10.276,42.779-54.056,42.779
			s-57.375-16.915-59.032-19.235s-16.247-1.325-3.651,12.938c12.606,14.264,26.538,27.854,60.027,27.854
			c33.499,0,82.583-33.489,82.583-63.342s0-103.133,0-103.133s-0.011-3.536,2.757-6.303s2.109-3.202,2.109-5.083
			s0.07-18.465,0.07-18.465s-0.401-3.646-4.053-3.646s-1-11.717-14.59-11.717C193.776,33.792,198.312,43.295,195.213,45.51z"/>
		<path fill="#000000" d="M103.57,185.716c0,2.059-2.968,3.727-6.634,3.727l0,0c-3.667,0-6.63-1.668-6.63-3.727V96.768
			c0-2.057,2.963-3.722,6.63-3.722l0,0c3.666,0,6.634,1.665,6.634,3.722V185.716z"/>
		<path fill="#000000" d="M140.269,185.716c0,2.059-2.963,3.727-6.629,3.727l0,0c-3.667,0-6.635-1.668-6.635-3.727V96.768
			c0-2.057,2.968-3.722,6.635-3.722l0,0c3.666,0,6.629,1.665,6.629,3.722V185.716z"/>
		<path fill="#000000" d="M174.099,185.716c0,2.059-2.968,3.727-6.629,3.727l0,0c-3.667,0-6.635-1.668-6.635-3.727V96.768
			c0-2.057,2.968-3.722,6.635-3.722l0,0c3.661,0,6.629,1.665,6.629,3.722V185.716z"/>
	</g>
	<g id="LOG" opacity="0">
		<path fill="#000000" d="M162.216,106.202l3.576-8.337l3.576-8.327c2.747-6.78,7.051-16.594,0.226-15.921
			c-9.03,0.894-56.752-13.249-64.838-15.981c-7.222-2.441-47.185-21.566-81.422-24.79c-1.326-0.041-4.419,0.1-5.183,1.607
			c-0.568,1.597,1.466,3.927,2.4,4.862c25.905,22.62,67.299,38.431,74.044,41.997c7.549,3.967,50.661,28.838,56.22,35.99
			C155.039,122.735,159.188,112.862,162.216,106.202z"/>
		<path fill="#000000" d="M177.237,71.005c0.513,2.22-1.642,17.177-2.646,21.416l0.121,0.05l-0.367,0.854
			c-0.371,1.115-0.799,2.059-1.226,2.853l-0.793,1.849l-0.954,2.24l-0.975,2.24l-0.794,1.849c-0.271,0.854-0.657,1.808-1.22,2.853
			l-0.367,0.854l-0.115-0.06c-2.391,3.646-11.752,15.509-13.716,16.664c-2.104,1.235,0.241,3.958,4.47,3.596
			c4.203-0.372,12.887-17.839,16.357-19.195c3.466-1.356,0.497,5.213,4.586,5.203c4.078,0.01,53.884,18.261,56.862,19.125
			c2.968,0.864,3.089,1.607,1.24,5.575c-1.873,3.967,0.613,4.339,5.439,4.58c0,0,0.432,0.03,1.1-0.181
			c0.372-0.11,0.724-0.271,1.06-0.492c0.191-0.11,0.382-0.211,0.583-0.352c0.04-0.04,0.085-0.07,0.115-0.11
			c1.517-1.115,3.456-3.305,5.384-7.795c1.919-4.47,2.186-7.373,1.944-9.241c0-0.061-0.005-0.111-0.005-0.161
			c-0.041-0.261-0.091-0.462-0.136-0.683c-0.086-0.372-0.201-0.744-0.382-1.095c-0.312-0.633-0.628-0.934-0.628-0.934
			c-3.501-3.325-5.479-4.861-7.071-0.793c-1.598,4.088-2.215,4.52-4.902,2.953c-2.677-1.567-50.192-25.112-53.016-28.075
			c-2.813-2.963-5.524,3.707-6.92,0.251c-1.412-3.445,5.278-21.777,2.642-25.071C180.271,68.454,176.686,68.615,177.237,71.005z"/>
		<path fill="#000000" d="M119.752,172.898l3.581-8.327l3.581-8.337c3.028-6.659,7.177-16.543,11.401-11.109
			c5.555,7.151,48.667,32.032,56.219,36c6.75,3.565,48.129,19.376,74.034,41.986c0.949,0.935,2.983,3.274,2.416,4.862
			c-0.769,1.506-3.867,1.646-5.193,1.617c-34.227-3.225-74.204-22.35-81.422-24.801c-8.081-2.732-55.808-16.865-64.828-15.971
			C112.706,189.492,117.015,179.679,119.752,172.898z"/>
		<path fill="#000000" d="M134.94,137.772c-1.959,1.145-11.32,13.008-13.711,16.664l-0.116-0.061l-0.372,0.854
			c-0.558,1.045-0.944,1.989-1.226,2.854l-0.798,1.848l-0.955,2.24l-0.964,2.25l-0.794,1.838c-0.432,0.783-0.854,1.728-1.225,2.853
			l-0.367,0.844l0.125,0.051c-1.004,4.249-3.164,19.205-2.652,21.425c0.553,2.391-3.033,2.541-5.675-0.764
			c-2.626-3.305,4.058-21.626,2.657-25.081c-1.406-3.455-4.113,3.225-6.936,0.261c-2.813-2.963-50.344-26.518-53.016-28.074
			c-2.672-1.567-3.295-1.135-4.892,2.943c-1.597,4.078-3.571,2.542-7.082-0.793c0,0-0.307-0.292-0.618-0.934
			c-0.176-0.342-0.302-0.713-0.377-1.095c-0.05-0.211-0.101-0.422-0.141-0.673c0-0.05,0-0.11-0.005-0.17
			c-0.241-1.858,0.025-4.771,1.943-9.231c1.929-4.49,3.853-6.689,5.374-7.794c0.04-0.04,0.081-0.081,0.121-0.121
			c0.211-0.141,0.392-0.241,0.578-0.352c0.347-0.211,0.688-0.382,1.064-0.482c0.668-0.211,1.1-0.191,1.1-0.191
			c4.832,0.241,7.313,0.623,5.454,4.59c-1.868,3.958-1.743,4.711,1.226,5.575c2.973,0.864,52.78,19.115,56.863,19.115
			c4.098,0,1.125,6.569,4.59,5.214c3.47-1.366,12.154-18.824,16.363-19.196C134.699,133.805,137.044,136.527,134.94,137.772z"/>
	</g>
	<g id="MCH" opacity="0">
		<path fill="#000000" d="M79.614,81.944c0,0,71.312,49.339,72.407,50.103c1.09,0.753,2.592,1.788,3.335,3.917
			s1.732,27.21-0.171,28.517c-1.913,1.295-11.391,9.462-13.646,9.512c-2.25,0.051-27.567,6.328-28.085-6.328
			c-0.517-12.656-0.944-24.86,3.797-25.604c4.756-0.744,15.318,0.311,15.037,3.345c-0.287,3.033-2.3,12.928,1.572,12.586
			c3.867-0.352,4.5,0.492,4.44-4.38c-0.045-4.881,1.15-7.482-2.537-10.034c-3.681-2.551-63.537-43.965-63.537-43.965
			s-3.978-4.168-0.758-12.023S77.298,80.327,79.614,81.944z"/>
		<path fill="#000000" d="M202.439,152.136c0.056-0.029,0.075-0.05,0.131-0.08c20.431-10.537,3.837-23.705,3.752-23.786
			L77.007,38.792c-2.386-1.647-5.329-2.069-11.2,6.268c-5.871,8.337-0.814,11.089-0.814,11.089s103.716,71.779,110.622,76.561
			c6.916,4.781,12.069,7.814,7.288,11.23c-17.88,12.636-20.01,18.421-19.729,23.454c0.281,5.043,11.502,21.667,18.362,28.839
			c6.87,7.172,2.953,8.367-1.136,12.516c-4.088,4.158-14.248-14.967-18.326-23.435c-4.083-8.478-13.892-0.331-18.683,2.13
			c-4.796,2.471,6.087,21.696,17.673,39.927c11.582,18.231,24.103,3.637,37.733-13.148c13.625-16.784-12.616-41.795-15.389-46.536
			C181.396,164.229,191.752,157.761,202.439,152.136z"/>
	</g>
	<g id="PLD" opacity="0">
		<path fill="#000000" d="M229.856,135.171c0,0,0-77.05,0-87.497c0-10.449-7.795-9.618-12.44-9.618c-4.641,0-5.977,2.817-5.977,5.977
			c0,3.157-8.447,10.439-10.441,10.439c-1.988,0-32.825,0-35.979,0s-9.618,1.16-9.618-9.618c0-9.352-8.342-10.213-10.557-10.276
			v-0.007c0,0-0.065,0-0.07,0c-0.13-0.002-0.125,0-0.206,0c-0.08,0-0.075-0.002-0.206,0c-0.01,0-0.065,0-0.065,0v0.007
			c-2.22,0.063-10.567,0.924-10.567,10.276c0,10.778-6.464,9.618-9.613,9.618c-3.154,0-33.991,0-35.985,0
			c-1.989,0-10.437-7.282-10.437-10.439c0-3.159-1.336-5.977-5.981-5.977c-4.641,0-12.436-0.831-12.436,9.618
			c0,10.446,0,87.497,0,87.497s-3.119,66.957,74.471,104.645c1.266,0.533,5.69,2.221,10.547,2.341v0.021
			c0.09,0,0.181-0.006,0.271-0.006s0.181,0.006,0.276,0.006v-0.021c4.856-0.12,9.276-1.808,10.542-2.341
			C232.976,202.128,229.856,135.171,229.856,135.171z M135.447,82.11c0,0,0,120.275,0,123.589c0,3.319-1.104,5.972-8.402,4.425
			c-39.822-31.008-43.523-56.998-43.774-63.778c0-15.984,0-52.428,0-62.689c0-13.267,5.75-11.717,5.75-11.717h38.024
			C136.552,71.94,135.447,82.11,135.447,82.11z M205.865,146.346c-0.251,6.78-3.953,32.771-43.774,63.778
			c-7.303,1.547-8.397-1.105-8.397-4.425c0-3.314,0-123.589,0-123.589s-1.11-10.17,8.397-10.17h38.028c0,0,5.746-1.55,5.746,11.717
			C205.865,93.917,205.865,130.362,205.865,146.346z"/>
	</g>
	<g id="SAM" opacity="0">
		<path fill="#000000" d="M223.79,81.578c-5.972-0.995-4.148,8.287,0.662,27.753c4.807,19.466-1.16,25.142-6.137,25.634
			c-4.973,0.502-17.242-9.121-25.036-10.607c-7.795-1.497-22.887,1.486-27.196-2.813c-4.309-4.319-12.767-38.974-20.727-38.974
			c-7.961,0-16.911,37.638-18.899,41.615c-1.994,3.988-7.132,1.004-10.778,2.983c-3.651,1.999-27.362-4.641-30.019-11.441
			c-2.657-6.791-1.657-10.939-4.475-14.585c-2.823-3.646-6.409-1.627-1.808-9.101c4.595-7.473,7.774-3.505,26.347-18.592
			c18.572-15.087,41.62-17.076,41.62-17.076c10.502-1.226,30.621,2.542,34.599,3.867c3.983,1.326,9.513,2.21,13.048-1.989
			c3.541-4.199-22.329-19.688-36.703-21.676c-14.369-1.989-32.499,0.231-47.31,5.535c-14.815,5.303-32.584,16.162-50.615,36.03
			c-18.03,19.869-19.145,60.811-19.145,60.811s-0.989,37.246,27.974,57.817c6.077,2.983,13.872,1.678,15.032-0.773
			c1.16-2.461,0.884-5.635-1.22-7.413c-2.099-1.768-18.236-21.525-18.236-49.63c0-5.475,1.16-7.132,5.801-8.628
			c4.646-1.487,11.28,6.469,15.755,10.949c4.475,4.47,21.229,5.303,31.344,5.635c10.11,0.331,4.641,34.653,6.961,38.973
			c2.32,4.31,34.985,1.818,41.454,2.149c6.469,0.332,9.618-9.12,7.629-14.092c-1.988-4.973-2.822-24.379-2.822-27.03
			c0-2.652,4.646-1.818,11.943-3.807c7.292-1.999,12.932,4.47,16.91,8.779c3.982,4.319,32.007,17.418,5.143,44.277
			c-26.859,26.869-46.598,25.372-57.541,25.372s-39.299-3.656-42.946,2.32c-3.646,5.967,18.738,19.235,42.946,21.225
			c76.942,0,106.057-80.257,106.057-110.089C253.401,105.163,229.756,82.572,223.79,81.578z M152.543,169.237
			c-2.873-0.221-10.396,1.768-10.17-2.652c0.221-4.419-0.894-24.328-0.005-29.842c0.884-5.535,1.552-10.396,1.552-10.396
			s2.652-10.838,6.414-1.989c3.762,8.849,3.536,9.723,3.978,17.247C154.753,149.118,155.416,169.458,152.543,169.237z"/>
	</g>
	<g id="DRK" opacity="0">
		<path fill="#000000" d="M176.555,93.456c-2.405-3.375,6.725-6.74,25.463-26.679c18.743-19.938-45.171,7.443-46.728,6.84
			s-5.288-33.147-6.488-39.757c-1.201-6.609-4.681-6.248-4.681-6.248s-3.491-0.362-4.691,6.248
			c-1.195,6.609-4.922,39.154-6.484,39.757s-65.471-26.779-46.732-6.84c18.743,19.938,27.869,23.304,25.468,26.679
			c-2.4,3.354-64.632,41.012-50.931,43.413c13.691,2.411,65.582-29.541,69.188-19.928c3.606,9.603,0,9.331,0,9.331
			s-11.049,13.42-16.815,15.58s-21.43,9.131-11.677,20.902c9.753,11.772,21.526,30.888,32.821,58.038
			c11.29,27.151,4.078,39.597,9.854,39.597c5.765,0-1.446-12.445,9.843-39.597c11.301-27.15,23.073-46.266,32.826-58.038
			c9.748-11.771-5.916-18.743-11.682-20.902s-16.814-15.58-16.814-15.58s-3.606,0.271,0-9.331
			c3.605-9.613,55.501,22.339,69.197,19.928C241.182,134.468,178.955,96.81,176.555,93.456z M161.177,156.837
			c4.564,1.205,0.481,4.078,0,5.043c-0.482,0.964-14.174,12.967-14.896,16.091c-2.873,4.048-4.33,0-4.33,0
			c-0.718-3.124-14.414-15.127-14.896-16.091c-0.477-0.965-4.56-3.838,0-5.043c4.565-1.215,12.496-11.29,13.696-12.837
			s3.37-1.818,3.37-1.818s2.16,0.271,3.365,1.818C148.681,145.547,156.611,155.622,161.177,156.837z"/>
	</g>
	<g id="AST" opacity="0">
		<path fill="#000000" d="M157.439,98.995c0,0-43.94,0-61.684,0c-17.744,0-15.92,10.617-15.92,10.617s0,33.991,0,44.105
			c0,10.115,4.646,12.768,8.789,12.768c2.747,0,5.113,0.04,6.79-1.256c6.017-2.672,5.65-8.688,5.65-8.688s0-21.064,0-27.864
			s6.961-8.126,6.961-8.126s23.716,0,33.163,0c9.457,0,8.126,4.982,8.126,4.982s0,61.353,0,68.977c0,7.634-6.961,6.971-6.961,6.971
			s-22.721,0-32.997,0c-10.286,0-10.115-5.646-10.115-5.646c0-7.623,1.657-18.903-7.965-17.407
			c-1.863,0.292-21.888,12.597-32.997,37.146c-11.109,24.539,4.812,8.287,7.96,4.801c3.149-3.475,16.75-17.567,18.407-12.435
			c0.332,13.269,6.961,12.776,6.961,12.776s44.94,0,61.524,0c16.583,0,16.583-20.571,16.583-20.571s0-67.651,0-84.405
			C169.714,98.995,157.439,98.995,157.439,98.995z"/>
		<path fill="#000000" d="M243.337,94.525c-2.477-3.646-24.921,1.166-36.628,8.116c-0.011,0.01-0.011,0-0.016,0.01
			c-5.087,2.611-5.479-3.656-5.479-3.656c0-0.964,0-4.068,0-12.928c0-16.915-20.391-15.258-20.391-15.258
			c-17.743,0-55.551,0-55.551,0s-8.955-0.824-8.955,9.784c0,10.607,10.617,9.291,17.744,9.291h35.653
			c0,0,12.265,0.322,12.265,14.585c0,14.264,0,69.479,0,69.479s1.331,9.452,9.954,9.452c8.624,0,9.452-7.464,9.452-11.441
			s0-35.317,0-35.317s-0.663-11.44,11.772-20.229S246.154,98.664,243.337,94.525z"/>
	</g>
	<g id="RDM" opacity="0">
		<path fill="#000000" d="M181.15,200.22c0,11.602-9.407,21.014-21.014,21.014c-11.597,0-21.003-9.412-21.003-21.014
			s9.407-21.003,21.003-21.003C171.743,179.217,181.15,188.618,181.15,200.22z"/>
		<path fill="#000000" d="M160.137,260.357c0,0,9.07-2.542,9.07-11.501c0-8.95-5.64-4.973-13.269-7.956
			s-29.848-11.049-29.848-40.681s25.649-40.901,34.046-40.901c8.407,0,24.986,7.955,28.964,5.304c3.982-2.652,5.64-5.304,0-10.276
			c-5.635-4.981-20.355-8.979-21.455-13.781c-1.096-4.792-8.062-108.603-12.37-115.896c-4.31-7.292-6.966-4.641-8.624,24.871
			c-1.657,29.521-3.867,88.393-11.38,95.937c-7.523,7.533-23.771,13.842-30.405,42.026c-6.635,28.195,8.955,47.763,18.236,55.387
			C132.394,250.514,145.11,259.915,160.137,260.357z"/>
		<path fill="#000000" d="M100.883,156.445c4.048-1.024,3.983,7.514,0,10.165c-3.978,2.652-9.281,19.908-9.281,33.609
			c0,13.711,8.844,34.936,16.8,41.564c7.96,6.63-12.817,11.05-22.992-9.732c-7.96-1.326-16.694,12.495-19.517,9.673
			c-2.818-2.813,13.108-15.75,11.611-19.235c-1.492-3.476-2.32-10.939-3.154-16.253c-0.824-5.304-29.014-9.944-29.843-14.424
			c-0.833-4.47,27.356-7.132,30.013-8.287c2.652-1.165,5.138-7.965,7.127-11.28c1.994-3.314,3.154-7.292,1.994-8.618
			c-1.16-1.325-18.11-19.647-14.926-22.821C71.895,137.622,94.585,158.042,100.883,156.445z"/>
	</g>
	<g id="WHM" opacity="0">
		<path fill="#000000" d="M152.332,83.034c0,11.172-9.06,20.23-20.23,20.23c-11.169,0-20.23-9.058-20.23-20.23
			c0-11.172,9.061-20.23,20.23-20.23C143.272,62.804,152.332,71.862,152.332,83.034z"/>
		<path fill="#000000" d="M95.62,114.542c-3.867,5.715,4.972,18.57,12.606,22.216c7.624,3.649,16.744,6.667,19.567,8.476
			c2.817,1.808,3.476,3.299,3.476,7.938c0,4.641,0,86.063,0,86.063s-0.492,6.469,10.12,6.469c10.607,0,10.944-10.115,10.944-20.893
			c0-10.778,0-72.794,0-72.794s-0.482-7.521,5.69-12.262c6.162-4.738,36.432-27.369,36.432-56.719
			c0-29.351-36.638-50.575-49.907-49.415c-13.279,1.16-6.976,7.131-1.165,10.446c5.8,3.317,18.728,10.778,25.037,22.056
			c6.298,11.275,4.475,19.401,2.817,24.044c-1.657,4.641-11.28,18.239-18.904,23.213c-7.629,4.975-20.23,7.96-28.853,7.132
			C114.855,119.679,99.437,108.901,95.62,114.542z"/>
	</g>
	<g id="WAR" opacity="0">
		<path fill="#000000" d="M235.296,95.278c-17.287-27.452-31.861-32.198-36.271-32.198c-4.404,0-11.516,6.102-13.892,14.572
			c-2.376,8.475-22.369,32.874-41.685,33.215c-19.316-0.341-39.32-24.74-41.69-33.215c-2.371-8.47-9.487-14.572-13.892-14.572
			c-4.41,0-18.979,4.746-36.267,32.198c-17.282,27.452-16.267,51.178-16.267,51.178s-1.015,23.721,16.267,51.172
			c17.287,27.457,31.857,32.203,36.267,32.203c4.404,0,11.521-6.106,13.892-14.574c2.371-8.478,22.375-32.876,41.69-33.218
			c19.316,0.342,39.309,24.74,41.685,33.218c2.376,8.468,9.487,14.574,13.892,14.574c4.41,0,18.984-4.746,36.271-32.203
			c17.281-27.451,16.268-51.172,16.268-51.172S252.577,122.73,235.296,95.278z M224.95,160.479
			c-1.663,7.142-4.225,15.554-7.956,21.561c-7.8,12.546-10.848,17.965-19.662,7.122c-18.979-35.247-53.884-29.828-53.884-29.828
			s-34.91-5.419-53.885,29.828c-8.819,10.843-11.863,5.424-19.662-7.122c-3.737-6.007-6.293-14.419-7.956-21.561
			c-2.145-8.854,0.065-28.007,0.13-28.587c1.663-7.023,4.184-15.162,7.825-21.023c7.799-12.541,10.843-17.962,19.662-7.117
			c18.975,35.247,53.885,29.825,53.885,29.825s34.905,5.421,53.884-29.825c8.814-10.846,11.862-5.424,19.662,7.117
			c3.642,5.861,6.163,14,7.825,21.023C224.885,132.471,227.084,151.624,224.95,160.479z"/>
	</g>
	<g id="MRD" opacity="0">
		<path fill="#000000" d="M197.754,126.527c0,0,47.752-2.657,56.597-74.732c0,0-8.845,4.866-16.805,7.076
			c0,0-5.746,22.555-23.876,33.607c0,0,13.711-11.938,14.595-33.607c0,0-22.113,3.978-30.511-1.771
			c-8.407-5.745,1.763-8.842,3.089-11.496c1.326-2.651,3.546-4.861-3.536-10.609c-7.081-5.75-11.496,0.881-14.147,8.842
			c-2.652,7.958-8.402-8.4-12.385,0.442c-3.979,8.844-17.242,20.782-5.751,19.901c11.506-0.886,3.541,0.439-0.432,6.188
			c-3.988,5.75-48.651,77.386-88.443,114.971c-39.802,37.582-24.323,33.604-11.938,53.944c0,0,3.094,4.425,6.188-4.861
			s65.888-92.86,80.036-118.062c14.158-25.207,26.096-38.471,30.952-38.916C186.248,77,201.731,95.133,197.754,126.527z"/>
		<path fill="#000000" d="M91.381,126.527C87.398,95.133,102.877,77,107.744,77.444c4.545,0.414,15.288,12.051,28.236,34.179
			c2.863-4.048,5.595-7.97,8.176-11.714c-10.728-15.688-18.101-27.359-19.612-29.542c-3.982-5.748-11.938-7.074-0.442-6.188
			c11.501,0.881-1.763-11.057-5.746-19.901c-3.982-8.842-9.728,7.516-12.385-0.442c-2.657-7.96-7.077-14.592-14.148-8.842
			c-7.077,5.748-4.862,7.958-3.536,10.609c1.326,2.654,11.496,5.751,3.094,11.496c-8.408,5.748-30.516,1.771-30.516,1.771
			C61.75,80.541,75.46,92.479,75.46,92.479C57.33,81.427,51.584,58.872,51.584,58.872c-7.966-2.21-16.805-7.076-16.805-7.076
			C43.619,123.871,91.381,126.527,91.381,126.527z"/>
		<path fill="#000000" d="M212.981,185.339c-20.611-19.472-42.523-48.066-59.419-71.92c-0.377,0.666-0.753,1.301-1.135,1.981
			c-1.763,3.136-4.224,7.112-7.157,11.652c21.109,32.578,70.715,99.138,73.457,107.37c3.094,9.286,6.197,4.861,6.197,4.861
			C237.3,218.943,252.778,222.921,212.981,185.339z"/>
	</g>
	<g id="MNK" opacity="0">
		<path fill="#000000" d="M145.08,37.725C132.7,48.473,97.754,78.818,97.754,78.818s-34.955,30.345-47.33,41.093
			c-12.38,10.748-8.834,25.124-8.834,25.124s13.736,5.525,26.116-5.22c12.38-10.748,47.325-41.093,47.325-41.093
			s34.955-30.345,47.33-41.093c12.38-10.748,8.835-25.124,8.835-25.124S157.46,26.978,145.08,37.725z"/>
		<path fill="#000000" d="M182.581,85.296c-12.38,10.748-47.325,41.093-47.325,41.093s-34.956,30.347-47.331,41.095
			c-12.38,10.748-8.834,25.122-8.834,25.122s13.736,5.524,26.116-5.224s47.326-41.09,47.326-41.09s34.955-30.345,47.33-41.093
			c12.38-10.748,8.834-25.125,8.834-25.125S194.962,74.549,182.581,85.296z"/>
		<path fill="#000000" d="M221.901,131.904c-12.38,10.748-47.325,41.095-47.325,41.095s-34.956,30.345-47.331,41.093
			c-12.38,10.747-8.834,25.121-8.834,25.121s13.736,5.524,26.116-5.223c12.38-10.748,47.325-41.093,47.325-41.093
			s34.955-30.345,47.33-41.093c12.381-10.745,8.835-25.122,8.835-25.122S234.281,121.156,221.901,131.904z"/>
	</g>
</svg>
