<?xml version="1.0" encoding="utf-8"?>
<!DOCTYPE svg PUBLIC "-//W3C//DTD SVG 1.0//EN" "http://www.w3.org/TR/2001/REC-SVG-20010904/DTD/svg10.dtd">
<svg version="1.0" xmlns="http://www.w3.org/2000/svg" xmlns:xlink="http://www.w3.org/1999/xlink" x="0px" y="0px" width="288px" height="288px" viewBox="0 0 288 288" enable-background="new 0 0 288 288" xml:space="preserve" author="Laighlinne">
	<g id="SVG_GLA" display="none">
		<g display="inline">
			<path fill="#231F20" d="M270.952,248.251c-2.704-2.703-4.731,3.386-8.117,0c-3.386-3.38-40.033-40.844-40.574-43.542
				c-0.541-2.716,12.179-13.53,12.173-16.234c0-2.703-0.313-14.065-4.64-9.739c-4.325,4.332-14.6,12.714-17.039,12.714
				c-2.434,0-7.307,0.541-11.632-3.785c-4.332-4.326-0.271-15.424-6.76-17.316C187.862,168.455,68.574,44.021,61.539,34.285
				c-5.297-7.334-24.85-13.436-34.184-16.001l-2.575,2.578c2.557,9.334,8.665,28.887,16.001,34.187
				c9.733,7.029,134.165,126.324,136.058,132.818c1.898,6.495,12.99,2.428,17.315,6.76c4.326,4.332,3.785,9.198,3.785,11.632
				c0,2.439-8.381,12.72-12.707,17.046c-4.326,4.325,7.029,4.633,9.733,4.633c2.703,0,13.524-12.714,16.234-12.173
				c2.704,0.547,40.162,37.194,43.548,40.574s-2.71,5.42-0.006,8.123c2.63,2.63,6.427,9.924,16.185,0.805l0.025,0.031
				c0.159-0.147,0.264-0.283,0.405-0.431c0.147-0.147,0.282-0.252,0.43-0.405l-0.03-0.03
				C280.876,254.679,273.582,250.881,270.952,248.251z"/>
			<g>
				<path fill="#231F20" d="M163.431,134.119c35.983-35.111,78.272-75.086,83.79-79.071c7.337-5.3,13.444-24.853,16.001-34.187
					l-2.574-2.578c-9.334,2.565-28.887,8.667-34.184,16.001c-3.982,5.512-43.88,47.717-78.967,83.686
					C152.979,123.556,158.306,128.957,163.431,134.119z"/>
				<path fill="#231F20" d="M124.645,141.173c-16.554,16.621-29.028,28.598-31.006,29.175c-6.489,1.893-2.427,12.99-6.759,17.316
					c-4.326,4.326-9.199,3.785-11.632,3.785c-2.439,0-12.714-8.382-17.04-12.714c-4.326-4.326-4.639,7.036-4.639,9.739
					c0,2.704,12.72,13.519,12.172,16.234c-0.541,2.698-37.188,40.162-40.574,43.542c-3.386,3.386-5.414-2.703-8.117,0
					c-2.63,2.63-9.93,6.428-0.805,16.18l-0.031,0.03c0.147,0.153,0.283,0.258,0.43,0.405c0.141,0.147,0.246,0.283,0.405,0.431
					l0.025-0.031c9.758,9.119,13.555,1.825,16.185-0.805c2.704-2.703-3.386-4.743-0.006-8.123c3.38-3.38,40.844-40.027,43.548-40.574
					c2.704-0.541,13.531,12.173,16.234,12.173s14.059-0.308,9.733-4.633c-4.326-4.326-12.707-14.606-12.707-17.046
					c0-2.434-0.541-7.3,3.785-11.632c4.326-4.332,15.417-0.265,17.316-6.76c0.578-1.984,12.609-14.501,29.273-31.11
					C135.38,151.748,130.102,146.537,124.645,141.173z"/>
			</g>
		</g>
	</g>
	<g id="SVG_MRD" display="none">
		<g display="inline">
			<path fill="#231F20" d="M208.66,131.775c0,0,58.056-3.23,68.814-90.856c0,0-10.759,5.917-20.431,8.604
				c0,0-6.985,27.421-29.027,40.858c0,0,16.669-14.514,17.743-40.858c0,0-26.89,4.836-37.1-2.152
				c-10.221-6.985,2.149-10.75,3.762-13.977c1.612-3.224,4.311-5.911-4.299-12.899c-8.609-6.991-13.982,1.072-17.206,10.75
				c-3.225,9.675-10.209-10.212-15.058,0.538c-4.836,10.752-20.955,25.266-6.985,24.194c13.982-1.078,4.299,0.535-0.524,7.523
				c-4.849,6.991-59.152,94.08-107.529,139.777c-48.39,45.696-29.571,40.854-14.514,65.59c0,0,3.761,5.373,7.522-5.917
				s80.104-112.896,97.301-143.535c17.219-30.646,31.726-46.771,37.637-47.312C194.678,71.561,213.496,93.606,208.66,131.775z"/>
			<g>
				<path fill="#231F20" d="M79.34,131.775c-4.842-38.168,13.977-60.214,19.893-59.673c5.526,0.504,18.586,14.651,34.328,41.554
					c3.48-4.921,6.802-9.69,9.94-14.242c-13.042-19.072-22.006-33.262-23.844-35.915c-4.842-6.988-14.514-8.601-0.537-7.523
					c13.982,1.072-2.143-13.442-6.985-24.194c-4.842-10.75-11.827,9.137-15.057-0.538c-3.23-9.678-8.603-17.741-17.2-10.75
					c-8.604,6.988-5.911,9.675-4.299,12.899c1.612,3.227,13.977,6.991,3.761,13.977c-10.221,6.988-37.1,2.152-37.1,2.152
					C43.315,75.866,59.984,90.38,59.984,90.38C37.942,76.943,30.957,49.522,30.957,49.522c-9.684-2.687-20.43-8.604-20.43-8.604
					C21.272,128.545,79.34,131.775,79.34,131.775z"/>
				<path fill="#231F20" d="M227.174,203.275c-25.059-23.667-51.693-58.437-72.233-87.437c-0.464,0.809-0.916,1.582-1.38,2.409
					c-2.149,3.813-5.138,8.646-8.704,14.166c25.666,39.612,85.969,120.528,89.303,130.535c3.761,11.29,7.534,5.917,7.534,5.917
					C256.738,244.13,275.557,248.972,227.174,203.275z"/>
			</g>
		</g>
	</g>
	<g id="SVG_PGL" display="none">
		<g display="inline">
			<path fill="#231F20" d="M256.604,188.979c-1.294-1.294-3.882-1.812-10.87,4.405c-6.999,6.212-19.163,17.346-12.435,10.1
				c6.729-7.252,8.8-13.729,14.246-16.058c5.436-2.335,4.142-4.141,0-5.182c-4.141-1.035-8.811-8.541-10.363-10.611
				s-10.353,16.575-14.493,23.563c-11.658,22.01-23.563,21.751-23.563,21.751c14.493-4.141,29.774-40.197,31.845-43.562
				c2.07-3.37,5.953-4.664,0-4.141c-5.952,0.518-31.339-24.863-35.479-28.228c-4.141-3.37-5.693-3.885-16.822-2.07
				c-14.246,4.92-7.775,21.486-7.517,26.928c-2.059,7.505-17.599,7.511-17.599,7.511c12.681-1.553,12.939-5.958,12.939-5.958
				c-10.352-41.171,25.116-32.254,25.116-32.254c-2.588-0.665-1.553,0.403-2.588-8.399c-1.035-8.802-9.317-11.911-18.387-11.396
				c-9.059,0.521-28.742,34.445-28.742,34.445c8.802-24.084,25.377-36.509,25.377-36.509c-4.658-1.556-5.176-8.291-8.022-23.051
				c-2.847-14.758-10.62-24.854-18.907-30.813c-8.282-5.955-15.534-3.105-36.509-3.105c-20.969,0-26.668,22.525-26.668,22.525
				c4.406-22.369,15.534-27.604,36.25-26.054c20.716,1.556,16.575-2.844,16.575-2.844c-28.728-37.871-32.115-37.806-61.89-16.831
				C38.323,54.114,47.381,81.817,41.17,85.702c-6.217,3.882-23.045-1.553-10.099,24.601c12.946,26.151,60.848,51.267,67.842,52.014
				c6.994,0.741,13.205-1.265,17.087,12.976c3.888,14.245,63.962,73.794,67.327,78.458c3.365,4.665,0.777,25.116,11.388,9.323
				c10.623-15.793,61.113-63.995,65.513-65.807S257.897,190.279,256.604,188.979z M122.034,132.899
				c0.083,0.026,0.153,0.067,0.247,0.091C122.281,132.99,122.187,132.955,122.034,132.899c-17.54-4.853-11.405-30.786-11.405-30.786
				c-14.181,27.189-30.686,30.877-30.686,30.877c12.234-5.438,27.574-28.351,31.074-40.2c3.5-11.846-5.629-18.449-5.629-18.449
				c6.211,1.941,9.317,10.291,9.317,10.291c2.329,4.082,7.576,2.526,7.576,2.526c-7.188,1.358-8.74,10.875-8.74,10.875
				C105.771,125.685,120.011,132.134,122.034,132.899z"/>
		</g>
	</g>
	<g id="SVG_LNC" display="none">
		<g display="inline">
			<path fill="#231F20" d="M230.966,186.91c1.373-4.128,2.198-7.706-2.205-4.953c-4.41,2.754-11.291-0.277-15.966-4.404
				c-4.688-4.127-48.181-40.469-58.457-44.142c-10.277-3.667-53.593-43.676-58.912-47.167c-5.318-3.49-61.11-55.609-66.434-60.556
				c-5.324-4.958-9.362-6.061-9.362-6.061s1.103,4.039,6.055,9.357c4.958,5.33,57.072,61.122,60.562,66.44
				c3.49,5.324,43.5,48.641,47.167,58.911c3.673,10.276,40.009,53.776,44.142,58.457c4.134,4.676,7.158,11.557,4.404,15.966
				c-2.753,4.404,0.826,3.579,4.953,2.205c4.133-1.379-6.474,11.98,4.746,11.22c11.226-0.76,2.411-2.417,4.48-4.48
				c2.058-2.063,14.586-14.586,14.586-14.586s1.51-2.618,5.371,1.232c3.851,3.861,27.257,23.954,26.979,27.256
				c-0.277,3.308-11.013,10.736,13.625,10.323c0,0,3.16,0.413,4.134,2.205c0.961,1.787,2.889,8.396,7.293,3.986
				c4.398-4.404-2.199-6.326-3.992-7.294c-1.786-0.961-2.198-4.127-2.198-4.127c0.412-24.639-7.022-13.902-10.33-13.625
				c-3.302,0.277-23.4-23.129-27.256-26.979c-3.851-3.855-1.238-5.371-1.238-5.371s12.528-12.522,14.592-14.586
				c2.069-2.069,3.715,6.745,4.476-4.48C242.945,180.437,229.586,191.043,230.966,186.91z"/>
		</g>
	</g>
	<g id="SVG_ARC" display="none">
		<g display="inline">
			<path fill="#231F20" d="M62.808,231.514c-31.081-61.58,32.434-103.849,32.434-103.849v-6.183l-6.183,0.006v-6.567l6.846-6.853
				L80.662,92.819c1.637,8.012-18.238,2.418-18.238,2.418c15.243,3.665,7.721,28.179,7.721,28.179
				c-67.18,111.19-18.92,108.871-18.92,118.527c0,9.649-1.16,9.649-6.369,14.864c-5.215,5.209-2.319,6.562-2.319,6.562
				c8.496,8.489,26.635-11.002,29.146-11.002c2.518,0,6.381-6.183,0-6.183c-6.369,0,0-10.424,0-10.424l-4.242-4.248
				C64.936,234.024,62.808,231.514,62.808,231.514z"/>
			<polygon fill="#231F20" points="144.555,156.719 69.562,231.712 71.304,233.448 146.298,158.455 		"/>
			<polygon fill="#231F20" points="58.598,50.867 58.598,38.514 22.872,22.867 38.518,58.594 50.871,58.594 220.162,227.886 
				225.961,250.278 251.058,275.376 254.512,254.508 275.38,251.054 250.276,225.957 227.89,220.158 		"/>
			<path fill="#231F20" d="M256.813,44.852c-5.215,5.209-5.215,6.369-14.864,6.369c-9.649,0.006-7.343-48.259-118.534,18.92
				c0,0-24.508,7.528-28.173-7.721c0,0,5.594,19.875-2.418,18.238l15.255,15.249l6.846-6.853h6.567l-0.006,6.183h6.183
				c0,0,42.269-63.515,103.849-32.434c0,0,2.512,2.127,0,4.633l4.248,4.248c0,0,10.424-6.375,10.424,0c0,6.369,6.177,2.512,6.177,0
				c0-2.518,19.504-20.65,11.008-29.146C263.374,42.538,262.016,39.636,256.813,44.852z"/>
			<polygon fill="#231F20" points="158.459,146.294 233.452,71.294 231.716,69.564 156.716,144.557 		"/>
		</g>
	</g>
	<g id="SVG_CNJ" display="none">
		<g display="inline">
			<circle fill="#231F20" cx="214.222" cy="146.031" r="10.79"/>
			<path fill="#231F20" d="M203.844,161.235c0,6.409-5.202,11.604-11.61,11.604c-6.409,0-11.599-5.195-11.599-11.604
				s5.189-11.607,11.599-11.607C198.642,149.628,203.844,154.826,203.844,161.235z"/>
			<ellipse fill="#231F20" cx="214.633" cy="172.84" rx="10.789" ry="10.783"/>
			<path fill="#231F20" d="M100.919,74.539c0,6.182-5.009,11.197-11.194,11.197c-6.179,0-11.194-5.015-11.194-11.197
				s5.015-11.197,11.194-11.197C95.911,63.342,100.919,68.357,100.919,74.539z"/>
			<path fill="#231F20" d="M55.933,160.726c0,5.214-4.231,9.445-9.452,9.445s-9.452-4.231-9.452-9.445
				c0-5.227,4.231-9.458,9.452-9.458S55.933,155.499,55.933,160.726z"/>
			<path fill="#231F20" d="M236.921,66.014c0,5.448-4.418,9.862-9.868,9.862c-5.438,0-9.856-4.415-9.856-9.862
				s4.418-9.859,9.856-9.859C232.503,56.155,236.921,60.566,236.921,66.014z"/>
			<path fill="#231F20" d="M163.785,48.552c0,5.674-4.604,10.272-10.267,10.272c-5.678,0-10.276-4.598-10.276-10.272
				c0-5.668,4.598-10.27,10.276-10.27C159.181,38.282,163.785,42.883,163.785,48.552z"/>
			<path fill="#231F20" d="M182.277,241.663c0,0,8.425,13.764,6.981,24.447c-1.431,10.684,3.285,9.452,8.214,8.008
				c4.94-1.431,16.438-25.262,29.58-25.673c13.153-0.416,13.775-4.523,16.239-1.854c2.465,2.675,4.929-0.411,0-2.875
				c-4.928-2.464-13.763-1.643-17.87-5.14c-4.119-3.484-46.641-32.455-41.502-41.906c5.128-9.451,7.604-12.531,12.32-10.272
				c4.729,2.265,3.285-1.644,1.232-2.775c-2.054-1.126-8.015-5.027-5.239-6.882c2.774-1.842-3.796-0.199-9.956-6.57
				c-6.172-6.372-6.172-2.464-5.762,0c0.424,2.464-2.663-1.232-2.252-5.961c0.41-4.723-2.875-3.074-4.518-2.975
				s-0.212-10.379,4.518-13.664c4.729-3.285,0.821-14.79,1.842-18.075c1.032-3.289,14.386-11.505,21.578-20.546
				c7.193-9.041,8.015-25.679,12.531-26.295c4.518-0.616,5.401-1.646,6.981-3.015c0,0-3.771,0.544-7.192,0
				c-3.41-0.544-6.845,4.794-8.214,6.095c-1.368,1.3-5.612,14.725-4.791,12.671c0.821-2.056-14.796,11.225-18.629,11.639
				c-3.833,0.411-9.993-24.375-9.856-26.839c0.138-2.467-5.064-4.387-4.729-6.851c0.349-2.467,5.551-6.166,8.425-5.616
				c2.875,0.551-1.369-2.47-1.231-3.836c0.137-1.369-0.834,2.197-2.19,2.741c-1.369,0.544-7.529,2.741-8.5,1.646
				c-0.958-1.101-18.489-10.55-20.262-13.427c-1.78-2.875-2.19-1.372-1.923,0c0.274,1.372,3.572,4.797,4.256,6.303
				c0.678,1.503,13.412,8.901,14.78,11.091c1.369,2.193,5.75,7.258,5.887,10.478c0.137,3.22,7.404,33.214,4.529,35.268
				c-2.887,2.056-3.695,5.752-4.529,7.939c-0.821,2.193-0.821,16.983-2.054,18.903c-1.231,1.919-4.106,0.821-3.422,3.422
				c0.685,2.607-0.535,10.957,0.548,11.368c1.095,0.417,5.077,4.523,4.118,6.166c-0.958,1.643-7.541,8.897-6.993,10.267
				c0.548,1.375,5.064,9.047,4.243,11.101c-0.821,2.053-29.166-4.929-31.356-8.356c-2.19-3.429-26.706-24.379-30.402-26.021
				c-3.696-1.648-6.297-16.028-7.809-21.915c-1.512-5.889,0.068-25.748,0-26.774c-0.068-1.027,2.396-5.958,5.27-6.369
				c2.875-0.411,1.643-1.235,2.053-3.083c0,0-3.285,1.235-6.371,1.646c-3.074,0.411-4.717,3.49-6.16,1.848
				c-1.431-1.646-8.014-5.752-12.942-8.425c0,0-2.875,2.878-1.026,4.11s13.763,9.654,13.763,11.299
				c0,1.646-2.669,24.858-2.464,27.116c0.206,2.262,1.238,26.09,3.491,28.144c2.265,2.053,31.229,29.997,30.818,32.256
				c-0.411,2.265-26.301-0.821-29.997-4.518c-3.696-3.696-24.441-17.049-23.42-20.956c1.033-3.908,1.854-9.856,1.444-13.354
				c-0.411-3.49-2.875-0.41-4.729-4.106c0,0,1.027,10.067-1.232,15.194c-2.259,5.14-8.014,2.881-9.035,9.048
				c0,0,3.484,1.231,4.312-1.232c0.821-2.47,3.491-2.676,4.517-1.854c1.027,0.821,21.983,22.805,23.831,24.453
				c1.848,1.637,25.48,18.897,33.898,18.069c8.419-0.821,17.876-8.624,37.386-1.021C172.82,222.972,162.143,223.171,182.277,241.663z
				"/>
			<path fill="#231F20" d="M71.688,42.939c0,0-40.133,22.596-4.928,45.606C66.76,88.545,61.688,62.934,71.688,42.939z"/>
			<path fill="#231F20" d="M98.804,96.077c0,0,10.13-25.477,42.18-18.763c0,0-9.725,8.213-13.147,13.832
				C124.408,96.761,117.98,102.784,98.804,96.077z"/>
			<path fill="#231F20" d="M88.251,39.788c0,0,23.01-20.135,46.156,14.376c0,0-15.892,3.836-23.078-2.464
				C104.143,45.403,97.292,36.91,88.251,39.788z"/>
			<path fill="#231F20" d="M163.785,12.942c0,0,7.877,19.174,8.151,25.34c0.273,6.16-5.202,16.707-0.821,24.242
				C171.115,62.523,196.041,35.544,163.785,12.942z"/>
			<path fill="#231F20" d="M209.183,33.948c0,0-31.907,20.362-4.244,43.092c0,0-5.936-12.049-3.521-17.254
				C203.844,54.578,208.771,44.678,209.183,33.948z"/>
			<path fill="#231F20" d="M220.42,79.367c0,0,26.432,0.411,29.58-3.491c3.148-3.905,8.624-6.505,12.88-4.726
				c0,0-0.137,12.056-9.731,13.147c-9.582,1.092-19.177,0.822-21.641-1.235C229.044,81.013,223.979,80.188,220.42,79.367z"/>
			<path fill="#231F20" d="M25.121,105.457c0,0,18.897-2.259,28.964,13.562c10.061,15.816,5.333,27.937,7.908,30.815
				c0,0-10.988-8.421-12.631-19.31C47.72,119.634,29.843,105.046,25.121,105.457z"/>
			<path fill="#231F20" d="M48.118,178.508c0,0-26.469,14.784-21.566,44.738c0,0,13.819-9.688,15.736-28.946
				C44.21,175.036,45.604,183.529,48.118,178.508z"/>
		</g>
	</g>
	<g id="SVG_THM" display="none">
		<g display="inline">
			<path fill="#231F20" d="M232.861,196.715c-23.198-5.029-4.197,18.733-14.257,18.169c-10.065-0.56-4.477-6.421-1.676-14.251
				c33.828-41.379-12.301-37.747-14.543-34.388c-2.235,3.354-10.338,10.346-8.941,4.751c1.397-5.589-3.632-13.978-8.668,0
				c-5.036,13.977-41.094,13.145-41.094,13.145s-36.064,0.832-41.1-13.145c-5.029-13.978-10.065-5.589-8.662,0
				c1.397,5.595-6.706-1.397-8.948-4.751c-2.242-3.359-48.371-6.991-14.536,34.388c2.794,7.83,8.382,13.691-1.677,14.251
				c-10.072,0.564,8.941-23.198-14.263-18.169c-15.647,14.815-8.383,12.027,0,15.102c3.988,1.454,4.845,1.219,4.991,1.073
				c-0.076,0.12-0.089,0.635,0.883,2.279c2.8,4.75,5.029,6.706,9.227,5.31c4.191-1.397,20.969,50.879,74.084,51.165
				c53.115-0.286,69.893-52.563,74.084-51.165c4.191,1.396,6.427-0.56,9.228-5.31c0.972-1.645,0.959-2.159,0.883-2.279
				c0.14,0.146,1.003,0.381,4.984-1.073C241.251,208.742,248.516,211.53,232.861,196.715z M89.45,188.053
				c-11.189-2.801-8.954,5.029-8.954,5.029c-1.397-3.918,10.624-5.314,5.595,3.354c-5.036,8.662-15.654-5.589-15.654-5.589
				c-18.455-25.439,8.941-20.41,10.897-19.571c1.956,0.838,6.16,6.433,6.16,6.433S91.698,182.579,89.45,188.053z M201.269,196.436
				c-5.03-8.668,6.998-7.271,5.601-3.354c0,0,2.229-7.83-8.954-5.029c-2.261-5.474,1.956-10.345,1.956-10.345
				s4.197-5.595,6.153-6.433c1.956-0.839,29.358-5.868,10.904,19.571C216.929,190.847,206.304,205.098,201.269,196.436z"/>
			<path fill="#231F20" d="M121.799,16.356c0,0-24.945,19.496-17.61,46.339c0,0-5.658,0-8.808-6.084
				c-3.137-6.077-7.963-11.742-16.765-13.418c0,0,9.64,2.934,9.85,12.58c0.209,9.646,2.515,18.029,8.173,15.514
				c0,0,7.76,26.837,1.054,31.454c0,0-6.083,0-6.293-5.036c-0.209-5.03,3.982-14.46-12.783-13.838c0,0,6.078,1.048,6.287,7.76
				s-9.653,40.046,9.64,45.92c19.293,5.868,30.825,23.903,34.807,32.495c0,0,5.036-34.178-19.705-46.542
				c-24.741-12.377,9.018-14.047,6.287-32.921c0,0,3.15,9.431-2.305,16.562c-5.455,7.132-5.239,11.113,4.61,18.245
				c9.856,7.125,10.694,13.838,11.539,17.191c0,0-1.474-14.466,5.868-23.274c7.334-8.802,13.837-18.029,3.353-31.238
				S100.627,59.126,121.799,16.356z"/>
			<path fill="#231F20" d="M152.414,108.19c0,0,4.675,26.418-7.938,33.13c-12.612,6.706-6.535,21.801-3.385,26.837
				c0,0-6.706-15.515,11.113-17.819c17.819-2.312,13.425-13.628,12.161-16.987c0,0,0.419,3.143-3.563,6.293
				C160.804,139.644,163.108,132.303,152.414,108.19z"/>
			<path fill="#231F20" d="M29.553,65.21c0,0,16.143,0.628,20.753,16.771c4.61,16.143-2.096,31.034,10.275,34.387
				s15.095,3.563,16.981,9.856c0,0,1.473,10.065,9.646,13c8.173,2.934,17.826,8.383,19.083,18.028c0,0-1.257-11.532-33.975-8.179
				c-32.705,3.359-63.949-16.353-41.513-35.22c0,0-4.604,14.047,7.132,5.449c0,0-11.113-6.712-2.725-22.43
				C43.6,81.144,41.079,70.03,29.553,65.21z"/>
			<path fill="#231F20" d="M167.929,166.69c0,0,14.047-14.048,6.712-24.113c-7.341-10.065,10.904-25.161,18.664-33.34
				c7.754-8.173,15.089-19.077,11.526-29.352c0,0,1.264,6.497-2.515,13.311c-3.772,6.814-23.274,18.975-28.304,31.555
				c0,0,3.143-47.59,20.969-59.542c17.819-11.952,2.934-20.55,1.677-22.855c-1.258-2.305-6.922-7.754-0.21-16.562
				c0,0-0.845,10.478,5.868,13.418c6.712,2.934,28.094,12.999,14.676,37.531c0,0,13.418,2.305,16.562-7.131
				c3.15-9.437,8.396-11.533,13.209-10.688c0,0-6.287,2.718-7.125,7.963c-0.839,5.246,4.826,33.969-26.418,48.645
				c0,0,11.532-2.305,17.19-9.018c0,0-4.61,16.149-19.083,19.711c-14.466,3.563-15.927,10.688-17.4,15.095
				C192.467,145.721,181.772,157.253,167.929,166.69z"/>
			<path fill="#231F20" d="M240.057,97.706c0,0,8.599,20.969-3.353,27.681c-11.952,6.706-26.209,4.611-40.682,25.154
				c0,0,13.635-14.466,28.311-4.191c14.676,10.275,39.417-14.466,40.465-25.37c0,0-3.569,5.875-15.724,7.341
				C249.074,128.321,258.092,116.998,240.057,97.706z"/>
		</g>
	</g>
	<g id="SVG_PLD" display="none">
		<path display="inline" fill="#231F20" d="M247.445,140.115c0,0,0-93.452,0-106.122c0-12.673-9.454-11.665-15.089-11.665
			c-5.629,0-7.249,3.417-7.249,7.249c0,3.828-10.245,12.661-12.664,12.661c-2.412,0-39.813,0-43.639,0
			c-3.826,0-11.665,1.407-11.665-11.665c0-11.342-10.118-12.387-12.805-12.463v-0.009c0,0-0.079,0-0.085,0
			c-0.158-0.003-0.152,0-0.25,0s-0.091-0.003-0.25,0c-0.012,0-0.079,0-0.079,0v0.009c-2.692,0.076-12.816,1.121-12.816,12.463
			c0,13.072-7.839,11.665-11.659,11.665c-3.826,0-41.227,0-43.646,0c-2.412,0-12.658-8.833-12.658-12.661
			c0-3.832-1.62-7.249-7.255-7.249c-5.628,0-15.082-1.008-15.082,11.665c0,12.67,0,106.122,0,106.122s-3.783,81.212,90.324,126.922
			c1.535,0.646,6.902,2.692,12.792,2.839v0.024c0.11,0,0.219-0.007,0.329-0.007c0.109,0,0.219,0.007,0.335,0.007v-0.024
			c5.891-0.146,11.251-2.193,12.786-2.839C251.228,221.327,247.445,140.115,247.445,140.115z M132.938,75.759
			c0,0,0,145.878,0,149.899c0,4.026-1.34,7.242-10.191,5.366c-48.299-37.608-52.789-69.132-53.093-77.355c0-19.386,0-63.589,0-76.034
			c0-16.09,6.975-14.211,6.975-14.211h46.119C134.278,63.424,132.938,75.759,132.938,75.759z M218.346,153.669
			c-0.304,8.224-4.794,39.747-53.093,77.355c-8.856,1.876-10.185-1.34-10.185-5.366c0-4.021,0-149.899,0-149.899
			s-1.347-12.335,10.185-12.335h46.125c0,0,6.968-1.879,6.968,14.211C218.346,90.08,218.346,134.283,218.346,153.669z"/>
	</g>
	<g id="SVG_MNK" display="none">
		<g display="inline">
			<path fill="#231F20" d="M134.883,32.542c0,0-95.139,75.691-102.494,86.205c-7.355,10.507-15.241,28.907-7.355,33.11
				c7.88,4.203,27.325-8.409,42.047-18.919c14.722-10.513,79.366-70.963,91.464-82.002c12.083-11.039,14.197-29.432,11.558-31.008
				C167.478,18.348,165.889,11.518,134.883,32.542z"/>
			<path fill="#231F20" d="M180.611,94.388c0,0-95.136,75.689-102.491,86.202c-7.355,10.514-15.242,28.913-7.355,33.116
				c7.88,4.203,27.319-8.412,42.047-18.925c14.722-10.508,79.37-70.958,91.453-81.996c12.096-11.039,14.209-29.436,11.57-31.012
				C213.208,80.198,211.62,73.365,180.611,94.388z"/>
			<path fill="#231F20" d="M230.02,150.244c0,0-95.142,75.688-102.491,86.196c-7.361,10.519-15.242,28.919-7.361,33.122
				c7.886,4.202,27.331-8.418,42.044-18.926c14.733-10.513,79.378-70.96,91.461-81.999c12.096-11.038,14.197-29.435,11.57-31.011
				C262.616,136.051,261.04,129.218,230.02,150.244z"/>
		</g>
	</g>
	<g id="SVG_WAR" display="none">
		<path display="inline" fill="#231F20" d="M252.569,83.505c-20.434-32.45-37.662-38.06-42.874-38.06
			c-5.207,0-13.613,7.213-16.421,17.229c-2.809,10.015-26.442,38.855-49.274,39.259c-22.833-0.403-46.478-29.244-49.28-39.259
			S83.505,45.445,78.299,45.445c-5.212,0-22.435,5.61-42.869,38.06C15.002,115.955,16.202,144,16.202,144
			s-1.199,28.045,19.229,60.494c20.434,32.45,37.656,38.061,42.869,38.061c5.207,0,13.619-7.213,16.421-17.229
			c2.802-10.015,26.448-38.861,49.28-39.259c22.832,0.397,46.466,29.244,49.274,39.259c2.808,10.016,11.214,17.229,16.421,17.229
			c5.212,0,22.44-5.61,42.874-38.061C272.998,172.045,271.799,144,271.799,144S272.998,115.955,252.569,83.505z M240.34,160.575
			c-1.965,8.442-4.992,18.386-9.403,25.492c-9.22,14.823-12.823,21.229-23.242,8.412C185.26,152.816,144,159.222,144,159.222
			s-41.266-6.405-63.694,35.258c-10.425,12.817-14.022,6.411-23.242-8.412c-4.417-7.106-7.438-17.05-9.404-25.492
			c-2.535-10.467,0.078-33.103,0.155-33.792c1.965-8.299,4.945-17.923,9.249-24.851c9.22-14.824,12.817-21.229,23.242-8.412
			C102.734,135.184,144,128.778,144,128.778s41.26,6.406,63.694-35.258c10.419-12.817,14.022-6.412,23.242,8.412
			c4.304,6.928,7.284,16.552,9.249,24.851C240.263,127.472,242.863,150.108,240.34,160.575z"/>
	</g>
	<g id="SVG_BRD" display="none">
		<g display="inline">
			<path fill="#231F20" d="M205.117,32.128H75.446c0,0-29.177,1.576-29.177,28.38c0,26.801,22.08,8.273,24.837,5.515
				c2.758-2.758,1.188-4.73,6.704-4.73c5.515,0,120.216,0,120.216,0s7.092-0.785,7.092,11.825c0,12.616,0,120.222,0,120.222
				s-12.213,50.845-64.245,50.845c-52.032,0-68.19-20.104-70.16-22.861c-1.97-2.758-19.31-1.576-4.34,15.376
				c14.982,16.946,31.541,33.099,71.342,33.099c39.814,0,98.149-39.796,98.149-75.276c0-35.479,0-122.583,0-122.583
				s-0.012-4.202,3.277-7.491s2.507-3.805,2.507-6.041c0-2.236,0.084-21.945,0.084-21.945s-0.478-4.333-4.817-4.333
				s-1.188-13.926-17.34-13.926C203.41,18.203,208.8,29.496,205.117,32.128z"/>
			<path fill="#231F20" d="M96.2,198.771c0,2.447-3.528,4.43-7.885,4.43l0,0c-4.357,0-7.879-1.982-7.879-4.43V93.048
				c0-2.444,3.522-4.423,7.879-4.423l0,0c4.357,0,7.885,1.979,7.885,4.423V198.771z"/>
			<path fill="#231F20" d="M139.816,198.771c0,2.447-3.522,4.43-7.879,4.43l0,0c-4.357,0-7.885-1.982-7.885-4.43V93.048
				c0-2.444,3.528-4.423,7.885-4.423l0,0c4.357,0,7.879,1.979,7.879,4.423V198.771z"/>
			<path fill="#231F20" d="M180.023,198.771c0,2.447-3.528,4.43-7.88,4.43l0,0c-4.357,0-7.885-1.982-7.885-4.43V93.048
				c0-2.444,3.527-4.423,7.885-4.423l0,0c4.352,0,7.88,1.979,7.88,4.423V198.771z"/>
		</g>
	</g>
	<g id="SVG_WHM" display="none">
		<g display="inline">
			<path fill="#231F20" d="M153.26,76.494c0,13.326-10.805,24.125-24.125,24.125s-24.125-10.799-24.125-24.125
				c0-13.321,10.805-24.125,24.125-24.125S153.26,63.173,153.26,76.494z"/>
			<path fill="#231F20" d="M85.627,114.071c-4.612,6.816,5.929,22.143,15.033,26.491c9.092,4.354,19.969,7.954,23.335,10.11
				c3.36,2.156,4.145,3.936,4.145,9.47s0,102.635,0,102.635s-0.587,7.714,12.068,7.714c12.65,0,13.051-12.063,13.051-24.916
				s0-86.811,0-86.811s-0.575-8.972,6.786-14.626c7.349-5.654,43.447-32.642,43.447-67.644c0-35.002-43.693-60.313-59.517-58.93
				c-15.836,1.383-8.319,8.505-1.39,12.458c6.917,3.959,22.334,12.854,29.857,26.306c7.511,13.446,5.337,23.137,3.36,28.671
				s-13.452,21.753-22.544,27.683c-9.098,5.936-24.125,9.493-34.409,8.505S90.179,107.345,85.627,114.071z"/>
		</g>
	</g>
	<g id="SVG_BLM" display="none">
		<path display="inline" fill="#231F20" d="M237.537,136.769c0,0-8.013-5.426-10.857,3.102c-2.845,8.525-26.098,2.321-26.606-1.295
			c-0.521-3.616,45.466-73.381,48.056-79.067c2.59-5.683,7.747-21.187,4.648-24.288c-3.099-3.099-18.604,2.067-24.282,4.651
			c-5.689,2.587-75.459,48.579-79.067,48.061c-3.63-0.518-9.825-23.773-1.306-26.612c8.533-2.847,3.109-10.857,3.109-10.857
			c-28.164-13.176-112.139,87.854-112.139,87.854c-30.541,30.535-30.541,80.063,0,110.588c30.53,30.529,80.052,30.529,110.58,0
			C149.672,248.906,250.719,164.936,237.537,136.769z M58.731,229.271c-19.695-19.7-19.695-51.619,0-71.313
			c19.689-19.692,51.614-19.692,71.314,0c19.692,19.694,19.692,51.613,0,71.313C110.345,248.961,78.421,248.961,58.731,229.271z
			M149.672,138.318c-16.295-16.3-37.987-23.809-59.331-22.711l0.183-0.077c-1.544-9.609,35.643-37.417,35.643-37.417
			c-4.134,5.686,9.817,33.59,19.897,33.335c10.071-0.263,77.252-46.771,77.252-46.771s-46.506,67.18-46.761,77.26
			c-0.255,10.074,27.646,24.027,33.324,19.894c0,0-27.802,37.193-37.408,35.644l-0.077,0.177
			C173.489,176.313,165.985,154.618,149.672,138.318z"/>
	</g>
	<g id="SVG_ACN" display="none">
		<path display="inline" fill="#231F20" d="M225.949,130.082c0-43.323-33.645-78.701-76.213-81.658h0.338c0,0-2.315-9.215,0-13.384
			h-0.006c1.58-1.562,2.554-3.723,2.554-6.122c0-4.762-3.86-8.622-8.628-8.622c-4.762,0-8.622,3.86-8.622,8.622
			c0,3.545,2.138,6.585,5.196,7.909l0.006,0.006c0.054,0.018,0.101,0.042,0.161,0.065c0.873,0.356,8.224,3.379,2.779,3.195
			c-5.79-0.196-5.885-1.372-4.418,2.06c1.473,3.432-1.199,6.199-1.781,6.247c-0.154,0.018,0.261,0.023,0.938,0.023
			c-12.713,0.885-24.612,4.638-35.069,10.665c-18.146-10.415-32.314-13.913-38.204-8.022C59.088,56.95,62.585,71.124,73,89.264
			c-6.924,12.024-10.95,25.937-10.95,40.817c0,40.734,29.743,74.414,68.672,80.779c-2.689,3.1-4.37,7.078-4.37,11.508
			c0,3.824,5.463,6.128,12.072,6.947l-0.303,0.356c0,0-22.73,15.783-20.884,18.146c1.858,2.34,19.803,0.677,20.195,1.947
			c0.392,1.283,2.446,4.514-8.925,3.635s-17.736,0.879-21.37,0.783c-3.623-0.095-22.837,13.521-9.311,13.521
			c13.533,0,91.266,0,91.266,0s8.331,0,3.913-5.189c-4.406-5.195-42.355-33.317-42.355-33.317h-0.018
			c6.128-0.938,11.015-3.207,11.015-6.829c0-4.43-1.687-8.408-4.37-11.508c9.893-1.614,19.173-4.976,27.54-9.785
			c18.146,10.415,32.302,13.918,38.198,8.028c5.891-5.891,2.394-20.059-8.034-38.205
			C221.923,158.874,225.949,144.956,225.949,130.082z M212.618,130.082c0,9.881-2.132,19.256-5.896,27.748
			c-9.388-13.77-21.875-28.977-36.612-44.202c-1.698-22.13-6.775-40.645-13.616-50.971
			C188.416,68.541,212.618,96.455,212.618,130.082z M138.704,187.798c-8.699,0-16.074-16.377-18.729-39.113
			c0.903,0.915,1.758,1.829,2.672,2.744c9.299,9.292,18.639,17.725,27.724,25.218C147.1,183.63,143.074,187.798,138.704,187.798z
			M93.326,85.933c4.679-4.685,15.136-2.619,27.873,4.382c-2.125,9.893-3.491,21.246-3.842,33.442
			c-0.487,2.031-0.808,4.139-0.808,6.324s0.321,4.287,0.808,6.324c0.042,1.556,0.113,3.088,0.19,4.608
			C96.289,117.303,85.559,93.706,93.326,85.933z M138.704,72.371c7.03,0,13.188,10.694,16.697,26.774
			c-8.467-7.921-16.869-15.094-24.98-21.418C132.938,74.325,135.74,72.371,138.704,72.371z M139.986,103.041
			c-9.156,1.348-16.792,7.167-20.664,15.225c0.712-10.011,2.333-19.037,4.572-26.412C129.019,94.87,134.446,98.634,139.986,103.041z
			M119.322,141.892c0.433,0.902,0.896,1.787,1.425,2.63c-0.445-0.481-0.885-0.956-1.318-1.431
			C119.393,142.694,119.352,142.302,119.322,141.892z M129.553,153.328c4.21,2.619,9.126,4.198,14.441,4.198
			c4.596,0,8.865-1.241,12.665-3.23c-1.039,6.532-2.476,12.398-4.228,17.327C145.093,166.79,137.302,160.614,129.553,153.328z
			M170.644,136.405c0.178-0.754,0.279-1.532,0.397-2.322c16.425,20.676,23.954,39.832,17.107,46.672
			c-4.139,4.133-12.778,2.992-23.508-2.138C168.013,166.956,170.187,152.366,170.644,136.405z M131.5,62.657
			c-2.072,3.129-3.966,7.036-5.67,11.543c-3.26-2.44-6.449-4.714-9.578-6.846C121.074,65.222,126.174,63.636,131.5,62.657z
			M75.381,130.082c0-9.881,2.132-19.257,5.896-27.748c9.382,13.77,21.875,28.977,36.607,44.202
			c1.704,22.131,6.775,40.646,13.609,50.978C99.573,191.622,75.381,163.702,75.381,130.082z M156.505,197.513
			c2.066-3.136,3.961-7.043,5.665-11.556c3.26,2.446,6.448,4.715,9.578,6.853C166.926,194.947,161.825,196.526,156.505,197.513z"/>
	</g>
	<g id="SVG_SMN" display="none">
		<path display="inline" fill="#231F20" d="M237.978,78.521c-12.147,2.382-12.092,9.908-12.092,9.908l-0.056,0.028
			c0.098,7.963-0.339,15.729-1.185,23.312c-0.268,0.479-3.185,5.496-7.202,7.019c-4.229,1.592-108.884-37.673-154.703-80.518
			c0,0-5.497-6.342-11.726-1.706c-6.215,4.623-1.712,11.712-1.712,11.712c27.912,56.178,35.523,167.715,32.789,171.295
			c-2.607,3.41-8.245,4.763-8.794,4.89c-7.512-1.367-15.066-3.185-22.663-5.553l-0.042,0.043c0,0-7.195-2.213-12.959,8.752
			c0,0-5.595,12.262,3.052,15.686c54.472,17.055,109.043,12.248,150.475-18.617l0,0c0,0,0,0,0.014,0
			c41.422-30.851,61.688-81.743,60.955-138.823C251.324,76.675,237.978,78.521,237.978,78.521z M207.635,167.354
			c-7.978,14.376-18.562,26.877-31.853,36.771l0,0l0,0c-13.29,9.894-28.297,16.446-44.363,19.971
			c-20.07,1.493-20.647-12.741-20.647-12.741c-3.326-62.914-14.298-100.319-20.951-117.767l0.007-0.014c0,0-2.551-7.399,4.179-3.875
			c0.007,0,0.007,0,0.007,0c14.586,11.274,47.369,32.753,107.334,54.218C201.349,143.916,214.822,148.538,207.635,167.354z"/>
	</g>
	<g id="SVG_SCH" display="none">
		<path display="inline" fill="#231F20" d="M245.047,116.143c-10.344,0-11.94,6.374-11.94,11.146
			c0,4.771,11.146,10.735,11.146,29.833c0,19.098-14.724,31.82-35.412,31.82c-20.682,0-33.411-20.688-33.411-33.411
			c0-12.735,5.567-30.23,30.628-42.568c25.062-12.326,13.134-18.302-12.331-27.845C168.267,75.575,155.935,72.382,144,71.997
			c-11.934,0.386-24.266,3.579-49.725,13.121s-37.394,15.519-12.332,27.845c25.062,12.338,30.628,29.833,30.628,42.568
			c0,12.724-12.724,33.411-33.411,33.411s-35.411-12.723-35.411-31.82c0-19.097,11.145-25.062,11.145-29.833
			c0-4.771-1.59-11.146-11.94-11.146c-10.338,0-23.073,10.736-23.073,40.978c0,30.23,22.676,58.882,59.677,58.882
			c36.99,0,59.268-34.218,59.268-60.87c0-26.651-22.278-40.978-27.05-47.339C107.004,101.432,144,98.648,144,98.648
			s36.996,2.783,32.225,9.145s-27.05,20.688-27.05,47.339c0,26.652,22.278,60.87,59.268,60.87c37.002,0,59.678-28.651,59.678-58.882
			C268.12,126.879,255.385,116.143,245.047,116.143z"/>
	</g>
	<g id="SVG_ROG" display="none">
		<g display="inline">
			<g>
				<path fill="#231F20" d="M159.789,121.628l3.198-7.456l3.198-7.447c2.452-6.064,6.306-14.84,0.197-14.239
					c-8.075,0.8-50.752-11.849-57.984-14.292c-6.459-2.183-42.199-19.287-72.818-22.17c-1.186-0.036-3.953,0.09-4.635,1.437
					c-0.508,1.428,1.312,3.513,2.147,4.348c23.167,20.23,60.188,34.37,66.22,37.559c6.75,3.548,45.307,25.791,50.281,32.187
					C153.366,136.415,157.076,127.584,159.789,121.628z"/>
				<path fill="#231F20" d="M173.22,90.151c0.458,1.985-1.465,15.361-2.363,19.152l0.108,0.045l-0.333,0.763
					c-0.332,0.998-0.709,1.842-1.096,2.551l-0.71,1.653l-0.854,2.003l-0.871,2.003l-0.709,1.653
					c-0.243,0.764-0.584,1.617-1.088,2.551l-0.332,0.764l-0.099-0.054c-2.138,3.261-10.511,13.87-12.271,14.903
					c-1.877,1.105,0.216,3.54,3.998,3.216c3.764-0.332,11.525-15.954,14.634-17.167c3.099-1.212,0.439,4.663,4.096,4.653
					c3.647,0.009,48.195,16.332,50.854,17.104c2.658,0.772,2.767,1.438,1.113,4.986c-1.68,3.548,0.548,3.88,4.86,4.096
					c0,0,0.386,0.027,0.988-0.161c0.332-0.1,0.646-0.243,0.943-0.44c0.17-0.099,0.341-0.188,0.521-0.314
					c0.036-0.036,0.081-0.063,0.107-0.099c1.356-0.997,3.091-2.956,4.815-6.972c1.716-3.997,1.949-6.593,1.733-8.264
					c0-0.054,0-0.099,0-0.144c-0.035-0.234-0.08-0.414-0.125-0.611c-0.072-0.333-0.18-0.665-0.342-0.979
					c-0.278-0.566-0.557-0.835-0.557-0.835c-3.136-2.973-4.905-4.348-6.324-0.709c-1.429,3.656-1.985,4.042-4.384,2.641
					s-44.89-22.458-47.413-25.108c-2.516-2.65-4.941,3.314-6.189,0.225c-1.267-3.082,4.716-19.476,2.362-22.422
					C175.933,87.869,172.726,88.013,173.22,90.151z"/>
			</g>
			<g>
				<path fill="#231F20" d="M121.811,181.276l3.203-7.447l3.203-7.456c2.708-5.956,6.418-14.795,10.196-9.936
					c4.968,6.396,43.521,28.647,50.277,32.196c6.036,3.188,43.047,17.328,66.215,37.55c0.845,0.835,2.668,2.929,2.156,4.348
					c-0.683,1.348-3.459,1.474-4.645,1.446c-30.605-2.884-66.358-19.987-72.817-22.18c-7.223-2.443-49.909-15.083-57.976-14.283
					C115.509,196.116,119.363,187.34,121.811,181.276z"/>
				<path fill="#231F20" d="M135.394,149.862c-1.752,1.024-10.125,11.633-12.262,14.903l-0.104-0.055l-0.332,0.764
					c-0.499,0.935-0.845,1.779-1.096,2.552l-0.714,1.652l-0.853,2.004l-0.862,2.012l-0.71,1.645c-0.386,0.7-0.764,1.545-1.096,2.551
					l-0.328,0.755l0.112,0.045c-0.898,3.8-2.83,17.176-2.372,19.161c0.494,2.138-2.713,2.272-5.076-0.683
					c-2.349-2.956,3.629-19.341,2.376-22.432c-1.258-3.09-3.679,2.884-6.203,0.234c-2.515-2.65-45.024-23.716-47.413-25.108
					c-2.39-1.401-2.947-1.016-4.375,2.632s-3.193,2.272-6.333-0.71c0,0-0.274-0.26-0.553-0.835c-0.157-0.306-0.27-0.638-0.337-0.979
					c-0.045-0.188-0.09-0.377-0.125-0.602c0-0.045,0-0.099-0.004-0.152c-0.216-1.662,0.022-4.268,1.738-8.256
					c1.725-4.016,3.445-5.983,4.806-6.971c0.036-0.036,0.072-0.072,0.108-0.108c0.188-0.125,0.351-0.215,0.517-0.314
					c0.31-0.189,0.615-0.342,0.952-0.432c0.597-0.188,0.984-0.17,0.984-0.17c4.321,0.215,6.54,0.557,4.877,4.105
					c-1.67,3.539-1.559,4.213,1.096,4.985c2.659,0.772,47.202,17.095,50.854,17.095c3.665,0,1.006,5.875,4.105,4.663
					c3.104-1.222,10.87-16.835,14.634-17.167C135.178,146.313,137.275,148.748,135.394,149.862z"/>
			</g>
		</g>
	</g>
	<g id="SVG_NIN" display="none">
		<path display="inline" fill="#231F20" d="M254.547,191.772c-10.924,8.059-75.186,43.338-54.482,7.47
			c7.265-12.583,10.622-26.33,10.602-39.885l0.068,0.068c0,0,3.626-114.487-117.66-130.332c0,0-8.148,1.81,4.297,7.237
			c12.445,5.441,75.124,43.449,33.717,43.449l0.055,0.055c-13.994,0-27.776,3.701-39.899,10.705l0.021-0.083
			c0,0-100.959,54.098-54.036,167.051c0,0,5.64,6.153,4.119-7.347c-1.515-13.487,0.062-86.773,20.765-50.918l0.021-0.083
			c6.764,11.747,16.55,21.972,29.132,29.249c0,0,97.341,60.376,171.697-36.732C262.962,191.676,265.463,183.713,254.547,191.772z
			M89.545,135.44c13.247-22.944,42.578-30.798,65.529-17.558c22.944,13.254,30.805,42.584,17.558,65.529
			c-13.24,22.944-42.585,30.812-65.529,17.558C84.159,187.715,76.298,158.384,89.545,135.44z"/>
	</g>
	<g id="SVG_MCH" display="none">
		<g display="inline">
			<path fill="#231F20" d="M76.86,80.758c0,0,82.189,56.868,83.451,57.748c1.263,0.868,2.987,2.061,3.844,4.515
				c0.857,2.454,2.003,31.362-0.196,32.867c-2.2,1.494-13.129,10.906-15.725,10.964c-2.594,0.059-31.774,7.294-32.37-7.293
				c-0.596-14.588-1.088-28.654,4.376-29.511c5.482-0.856,17.655,0.358,17.331,3.855c-0.33,3.496-2.651,14.899,1.812,14.506
				c4.457-0.405,5.187,0.567,5.117-5.048c-0.052-5.626,1.326-8.625-2.923-11.565c-4.243-2.94-73.232-50.673-73.232-50.673
				s-4.584-4.805-0.874-13.858C71.182,78.211,74.192,78.894,76.86,80.758z"/>
			<path fill="#231F20" d="M218.43,161.66c0.058-0.035,0.081-0.059,0.15-0.093c23.548-12.145,4.423-27.323,4.318-27.415
				L73.856,31.022c-2.75-1.898-6.142-2.385-12.909,7.225c-6.767,9.609-0.938,12.781-0.938,12.781s119.544,82.731,127.497,88.242
				c7.977,5.511,13.916,9.007,8.405,12.943c-20.607,14.564-23.062,21.232-22.738,27.032c0.324,5.813,13.257,24.973,21.164,33.238
				c7.918,8.267,3.403,9.645-1.309,14.426c-4.712,4.793-16.428-17.25-21.129-27.01c-4.7-9.771-16.011-0.382-21.533,2.454
				c-5.525,2.849,7.016,25.007,20.376,46.02c13.349,21.013,27.773,4.191,43.484-15.154c15.71-19.346-14.541-48.173-17.736-53.638
				C194.176,175.599,206.111,168.143,218.43,161.66z"/>
		</g>
	</g>
	<g id="SVG_DRK" display="none">
		<path display="inline" fill="#231F20" d="M178.761,89.832c-2.573-3.617,7.212-7.223,27.289-28.592
			c20.088-21.369-48.41,7.977-50.079,7.331s-5.662-35.525-6.951-42.608c-1.287-7.083-5.017-6.696-5.017-6.696
			s-3.741-0.387-5.027,6.696c-1.281,7.083-5.275,41.962-6.949,42.608c-1.674,0.646-70.167-28.7-50.084-7.331
			c20.088,21.369,29.868,24.975,27.295,28.592c-2.573,3.596-69.268,43.954-54.584,46.527c14.673,2.583,70.285-31.66,74.149-21.358
			c3.865,10.292,0,10,0,10s-11.841,14.382-18.021,16.697s-22.967,9.786-12.515,22.402c10.453,12.617,23.07,33.103,35.175,62.201
			c12.1,29.098,4.371,42.436,10.561,42.436c6.176,0-1.55-13.338,10.547-42.436c12.11-29.099,24.728-49.584,35.18-62.201
			c10.453-12.616-6.34-20.087-12.52-22.402c-6.179-2.314-18.021-16.697-18.021-16.697s-3.864,0.291,0-10
			c3.864-10.302,59.487,23.941,74.16,21.358C248.022,133.786,181.333,93.427,178.761,89.832z M162.279,157.759
			c4.897,1.292,0.517,4.371,0,5.404c-0.517,1.034-15.188,13.897-15.962,17.246c-3.079,4.338-4.64,0-4.64,0
			c-0.77-3.349-15.448-16.212-15.964-17.246c-0.511-1.033-4.887-4.112,0-5.404c4.893-1.302,13.392-12.1,14.678-13.757
			c1.286-1.658,3.612-1.948,3.612-1.948s2.314,0.291,3.606,1.948C148.89,145.659,157.392,156.457,162.279,157.759z"/>
	</g>
	<g id="SVG_AST" display="none">
		<g display="inline">
			<path fill="#231F20" d="M155.059,77.437c0,0-57.546,0-80.784,0c-23.238,0-20.85,13.905-20.85,13.905s0,44.516,0,57.762
				c0,13.247,6.084,16.72,11.51,16.72c3.598,0,6.696,0.053,8.893-1.644c7.88-3.499,7.4-11.379,7.4-11.379s0-27.586,0-36.492
				s9.116-10.642,9.116-10.642s31.059,0,43.431,0c12.385,0,10.642,6.524,10.642,6.524s0,80.35,0,90.334
				c0,9.998-9.116,9.13-9.116,9.13s-29.756,0-43.213,0c-13.471,0-13.247-7.394-13.247-7.394c0-9.984,2.17-24.757-10.432-22.797
				c-2.44,0.382-28.665,16.496-43.213,48.646c-14.549,32.137,6.301,10.853,10.425,6.288c4.124-4.552,21.936-23.008,24.106-16.286
				c0.434,17.378,9.116,16.733,9.116,16.733s58.854,0,80.573,0s21.719-26.941,21.719-26.941s0-88.597,0-110.54
				C171.134,77.437,155.059,77.437,155.059,77.437z"/>
			<path fill="#231F20" d="M267.552,71.583c-3.243-4.775-32.638,1.526-47.969,10.629c-0.014,0.013-0.014,0-0.021,0.013
				c-6.662,3.42-7.176-4.789-7.176-4.789c0-1.263,0-5.328,0-16.93c0-22.153-26.704-19.982-26.704-19.982c-23.238,0-72.752,0-72.752,0
				s-11.728-1.079-11.728,12.813s13.904,12.168,23.238,12.168h46.693c0,0,16.062,0.421,16.062,19.101s0,90.992,0,90.992
				s1.743,12.379,13.036,12.379c11.294,0,12.379-9.774,12.379-14.983s0-46.252,0-46.252s-0.868-14.983,15.418-26.494
				C244.313,88.737,271.241,77.002,267.552,71.583z"/>
		</g>
	</g>
	<g id="SVG_SAM">
		<path fill="#231F20" d="M229.06,78.508c-6.642-1.106-4.614,9.216,0.737,30.866c5.345,21.65-1.291,27.961-6.826,28.509
			c-5.529,0.559-19.175-10.143-27.844-11.796c-8.669-1.665-25.454,1.653-30.246-3.128c-4.793-4.804-14.198-43.344-23.052-43.344
			c-8.853,0-18.807,41.858-21.019,46.282c-2.217,4.435-7.932,1.117-11.987,3.318c-4.061,2.223-30.43-5.161-33.385-12.724
			c-2.955-7.552-1.843-12.166-4.977-16.221c-3.139-4.055-7.127-1.81-2.011-10.121c5.111-8.311,8.646-3.898,29.302-20.678
			c20.655-16.779,46.288-18.991,46.288-18.991c11.68-1.363,34.056,2.826,38.479,4.301c4.429,1.475,10.579,2.458,14.511-2.212
			c3.938-4.669-24.833-21.896-40.819-24.107c-15.98-2.212-36.144,0.257-52.616,6.155c-16.478,5.898-36.239,17.975-56.292,40.071
			c-20.052,22.097-21.292,67.63-21.292,67.63s-1.101,41.423,31.111,64.302c6.759,3.317,15.428,1.865,16.718-0.86
			c1.291-2.737,0.983-6.268-1.357-8.244c-2.334-1.967-20.281-23.94-20.281-55.197c0-6.088,1.291-7.932,6.452-9.596
			c5.167-1.654,12.545,7.194,17.522,12.176c4.977,4.971,23.61,5.898,34.859,6.267c11.244,0.368,5.161,38.54,7.742,43.344
			c2.581,4.793,38.909,2.022,46.104,2.391c7.194,0.369,10.696-10.144,8.484-15.673s-3.139-27.112-3.139-30.062
			s5.166-2.022,13.282-4.233c8.11-2.224,14.383,4.971,18.807,9.763c4.43,4.804,35.597,19.371,5.72,49.243
			c-29.872,29.883-51.823,28.218-63.994,28.218s-43.707-4.066-47.762,2.581c-4.055,6.636,20.84,21.393,47.762,23.604
			c85.571,0,117.951-89.258,117.951-122.436C261.992,104.738,235.694,79.614,229.06,78.508z M149.822,175.998
			c-3.195-0.245-11.563,1.967-11.311-2.948c0.246-4.916-0.994-27.057-0.005-33.19c0.983-6.155,1.726-11.562,1.726-11.562
			s2.949-12.054,7.133-2.212s3.933,10.813,4.424,19.181C152.279,153.623,153.017,176.244,149.822,175.998z"/>
	</g>
	<g id="SVG_RDM" display="none">
		<g display="inline">
			<path fill="#231F20" d="M180.684,203.207c0,11.561-9.373,20.939-20.938,20.939c-11.556,0-20.929-9.379-20.929-20.939
				c0-11.56,9.373-20.929,20.929-20.929C171.311,182.278,180.684,191.647,180.684,203.207z"/>
			<path fill="#231F20" d="M159.745,263.131c0,0,9.038-2.532,9.038-11.46c0-8.918-5.62-4.954-13.222-7.927
				s-29.742-11.01-29.742-40.537c0-29.526,25.559-40.756,33.926-40.756c8.378,0,24.897,7.927,28.861,5.284
				c3.968-2.643,5.619-5.284,0-10.239c-5.615-4.964-20.283-8.947-21.38-13.732c-1.091-4.774-8.032-108.217-12.326-115.484
				s-6.94-4.624-8.593,24.782c-1.651,29.417-3.854,88.079-11.34,95.596c-7.497,7.507-23.686,13.793-30.297,41.878
				c-6.611,28.095,8.923,47.593,18.171,55.189C132.101,253.322,144.771,262.69,159.745,263.131z"/>
			<path fill="#231F20" d="M100.702,159.588c4.034-1.021,3.968,7.487,0,10.13c-3.964,2.642-9.249,19.838-9.249,33.489
				c0,13.663,8.813,34.812,16.74,41.418c7.932,6.605-12.771,11.01-22.911-9.699c-7.932-1.321-16.635,12.451-19.447,9.639
				c-2.808-2.803,13.062-15.694,11.57-19.167c-1.486-3.463-2.312-10.899-3.143-16.194c-0.821-5.285-28.911-9.909-29.737-14.373
				c-0.831-4.454,27.26-7.106,29.907-8.258c2.642-1.161,5.12-7.937,7.101-11.24c1.987-3.303,3.143-7.266,1.987-8.587
				c-1.156-1.321-18.046-19.578-14.873-22.741C71.816,140.832,94.426,161.18,100.702,159.588z"/>
		</g>
	</g>
</svg>
