<?xml version="1.0" encoding="utf-8"?>
<!DOCTYPE svg PUBLIC "-//W3C//DTD SVG 1.0//EN" "http://www.w3.org/TR/2001/REC-SVG-20010904/DTD/svg10.dtd">
<svg version="1.0" id="Layer_1" xmlns="http://www.w3.org/2000/svg" xmlns:xlink="http://www.w3.org/1999/xlink" x="0px" y="0px" width="288px" height="288px" viewBox="0 0 288 288" enable-background="new 0 0 288 288" xml:space="preserve" author="Laighlinne">
	<g>
		<path fill="#231F20" d="M215.531,34.079c0.228-0.684,0.364-1.276-0.365-0.82c-0.73,0.456-1.87-0.046-2.645-0.729
			c-0.776-0.684-7.98-6.703-9.683-7.312c-1.702-0.607-8.877-7.235-9.758-7.813c-0.881-0.578-10.122-9.211-11.004-10.031
			c-0.882-0.821-1.551-1.003-1.551-1.003s0.183,0.668,1.003,1.55c0.821,0.882,9.453,10.124,10.031,11.004
			c0.578,0.882,7.205,8.057,7.813,9.758c0.608,1.702,6.627,8.907,7.312,9.682c0.685,0.775,1.186,1.915,0.729,2.645
			c-0.456,0.729,0.137,0.592,0.82,0.365c0.685-0.229-1.072,1.985,0.786,1.858c1.859-0.126,0.399-0.4,0.742-0.742
			c0.341-0.342,2.416-2.417,2.416-2.417s0.25-0.434,0.89,0.205c0.638,0.639,4.515,3.967,4.469,4.515s-1.824,1.778,2.257,1.71
			c0,0,0.523,0.068,0.685,0.365c0.159,0.296,0.479,1.391,1.208,0.661c0.729-0.729-0.364-1.048-0.661-1.208
			c-0.296-0.159-0.364-0.684-0.364-0.684c0.068-4.081-1.163-2.302-1.711-2.257c-0.547,0.046-3.876-3.831-4.515-4.468
			c-0.638-0.639-0.205-0.89-0.205-0.89s2.075-2.075,2.417-2.417c0.343-0.342,0.615,1.117,0.741-0.742
			C217.516,33.006,215.303,34.763,215.531,34.079z"/>
	</g>
	<g>
		<path fill="#231F20" d="M246.513,41.013c-4.895-9.697,5.107-16.354,5.107-16.354v-0.974l-0.974,0v-1.034l1.078-1.079l-2.4-2.402
			c0.258,1.262-2.872,0.381-2.872,0.381c2.4,0.578,1.216,4.438,1.216,4.438c-10.579,17.51-2.979,17.145-2.979,18.665
			s-0.183,1.52-1.003,2.341c-0.821,0.82-0.365,1.033-0.365,1.033c1.338,1.337,4.194-1.732,4.59-1.732c0.396,0,1.005-0.973,0-0.973
			c-1.003,0,0-1.642,0-1.642l-0.668-0.669C246.848,41.408,246.513,41.013,246.513,41.013z"/>
		
			<rect x="245.267" y="35.082" transform="matrix(0.7071 -0.7071 0.7071 0.7071 49.3426 189.6713)" fill="#231F20" width="16.702" height="0.387"/>
		<polygon fill="#231F20" points="245.85,12.565 245.85,10.62 240.224,8.156 242.688,13.782 244.633,13.782 271.292,40.441 
			272.205,43.967 276.157,47.92 276.701,44.634 279.987,44.089 276.034,40.137 272.509,39.225 	"/>
		<path fill="#231F20" d="M277.063,11.618c-0.821,0.821-0.821,1.003-2.341,1.003s-1.156-7.6-18.666,2.979
			c0,0-3.859,1.185-4.437-1.216c0,0,0.881,3.13-0.381,2.872l2.402,2.402l1.078-1.08h1.034l-0.001,0.974h0.974
			c0,0,6.656-10.001,16.354-5.107c0,0,0.396,0.335,0,0.729l0.669,0.669c0,0,1.642-1.003,1.642,0s0.973,0.396,0.973,0
			s3.071-3.252,1.733-4.59C278.097,11.253,277.883,10.797,277.063,11.618z"/>
		
			<rect x="258.992" y="21.358" transform="matrix(-0.7071 0.7071 -0.7071 -0.7071 471.6186 -152.255)" fill="#231F20" width="16.702" height="0.386"/>
	</g>
	<g>
		<path fill="#231F20" d="M46.427,44.972c-0.408-0.408-0.714,0.511-1.226,0c-0.511-0.51-6.043-6.166-6.125-6.573
			c-0.081-0.41,1.839-2.042,1.838-2.451c0-0.408-0.047-2.123-0.7-1.47c-0.653,0.654-2.204,1.919-2.572,1.919
			c-0.367,0-1.103,0.082-1.756-0.571c-0.653-0.653-0.041-2.329-1.021-2.614c-0.981-0.286-18.988-19.07-20.051-20.54
			c-0.799-1.107-3.751-2.028-5.16-2.416l-0.389,0.389c0.386,1.409,1.309,4.361,2.416,5.161c1.469,1.061,20.252,19.069,20.538,20.05
			s1.961,0.367,2.614,1.021c0.652,0.654,0.571,1.389,0.571,1.756c0,0.368-1.265,1.92-1.919,2.573
			c-0.652,0.653,1.062,0.699,1.47,0.699s2.042-1.919,2.45-1.837c0.408,0.083,6.063,5.615,6.574,6.125c0.512,0.51-0.408,0.818,0,1.226
			c0.396,0.397,0.97,1.498,2.443,0.122l0.003,0.005c0.024-0.022,0.04-0.043,0.062-0.065c0.021-0.022,0.043-0.038,0.064-0.061
			l-0.004-0.004C47.925,45.942,46.824,45.369,46.427,44.972z"/>
		<g>
			<path fill="#231F20" d="M30.195,27.742c5.433-5.3,11.816-11.334,12.649-11.936c1.107-0.8,2.029-3.751,2.415-5.161l-0.389-0.389
				c-1.408,0.387-4.36,1.308-5.16,2.416c-0.602,0.832-6.623,7.203-11.92,12.633C28.618,26.148,29.422,26.963,30.195,27.742z"/>
			<path fill="#231F20" d="M24.341,28.807c-2.499,2.509-4.382,4.317-4.681,4.404c-0.979,0.286-0.366,1.961-1.021,2.614
				c-0.653,0.653-1.388,0.571-1.756,0.571s-1.919-1.266-2.572-1.919c-0.653-0.653-0.7,1.062-0.7,1.47s1.92,2.041,1.838,2.451
				c-0.082,0.407-5.614,6.063-6.125,6.573c-0.512,0.511-0.817-0.408-1.226,0c-0.397,0.397-1.499,0.97-0.122,2.442l-0.004,0.004
				c0.021,0.023,0.043,0.039,0.064,0.061c0.021,0.022,0.037,0.043,0.062,0.065l0.004-0.005c1.474,1.376,2.046,0.275,2.443-0.122
				c0.407-0.408-0.511-0.716-0.001-1.226s6.166-6.042,6.574-6.125c0.408-0.082,2.042,1.837,2.45,1.837s2.122-0.046,1.47-0.699
				c-0.653-0.653-1.918-2.205-1.918-2.573c0-0.367-0.082-1.102,0.57-1.756c0.653-0.654,2.328-0.04,2.614-1.021
				c0.087-0.299,1.903-2.189,4.419-4.696C25.961,30.404,25.164,29.617,24.341,28.807z"/>
		</g>
	</g>
	<g>
		<path fill="#231F20" d="M103.088,35.491c-0.215-0.215-0.646-0.301-1.806,0.731c-1.161,1.032-3.182,2.88-2.064,1.677
			c1.118-1.204,1.462-2.279,2.365-2.666c0.902-0.387,0.688-0.688,0-0.86s-1.462-1.419-1.72-1.762
			c-0.259-0.344-1.72,2.751-2.407,3.912c-1.936,3.654-3.912,3.611-3.912,3.611c2.407-0.688,4.943-6.674,5.287-7.232
			c0.344-0.559,0.988-0.774,0-0.688c-0.988,0.086-5.202-4.127-5.89-4.686c-0.688-0.56-0.946-0.645-2.794-0.344
			c-2.365,0.817-1.29,3.567-1.247,4.471c-0.343,1.246-2.923,1.247-2.923,1.247c2.105-0.258,2.149-0.989,2.149-0.989
			c-1.72-6.835,4.17-5.355,4.17-5.355c-0.43-0.11-0.259,0.067-0.43-1.395c-0.173-1.461-1.548-1.978-3.053-1.892
			c-1.505,0.086-4.772,5.719-4.772,5.719c1.462-3.999,4.213-6.062,4.213-6.062c-0.773-0.258-0.859-1.376-1.332-3.827
			c-0.473-2.45-1.763-4.126-3.139-5.116c-1.375-0.989-2.579-0.516-6.062-0.516c-3.481,0-4.428,3.74-4.428,3.74
			c0.731-3.714,2.579-4.583,6.019-4.326c3.439,0.258,2.752-0.472,2.752-0.472c-4.77-6.288-5.332-6.277-10.275-2.794
			c-4.943,3.482-3.439,8.082-4.471,8.727c-1.032,0.645-3.826-0.258-1.677,4.084c2.149,4.342,10.103,8.512,11.264,8.636
			c1.161,0.123,2.192-0.21,2.837,2.155c0.646,2.365,10.619,12.252,11.178,13.026c0.559,0.774,0.129,4.17,1.892,1.548
			c1.763-2.623,10.146-10.625,10.876-10.926C104.419,36.566,103.302,35.706,103.088,35.491z M80.745,26.18
			c0.014,0.004,0.025,0.011,0.041,0.015C80.786,26.195,80.771,26.189,80.745,26.18c-2.912-0.806-1.894-5.111-1.894-5.111
			c-2.354,4.514-5.095,5.126-5.095,5.126c2.031-0.903,4.578-4.707,5.159-6.674c0.581-1.967-0.935-3.063-0.935-3.063
			c1.031,0.322,1.547,1.708,1.547,1.708c0.387,0.678,1.258,0.419,1.258,0.419c-1.193,0.226-1.451,1.806-1.451,1.806
			C78.045,24.982,80.409,26.053,80.745,26.18z"/>
	</g>
	<g>
		<path fill="#231F20" d="M99.477,93.75c-3.567-0.773-0.646,2.88-2.192,2.794c-1.548-0.086-0.688-0.988-0.258-2.192
			c5.202-6.363-1.892-5.804-2.236-5.288c-0.344,0.516-1.59,1.591-1.375,0.731s-0.559-2.149-1.333,0s-6.319,2.021-6.319,2.021
			s-5.546,0.128-6.32-2.021c-0.773-2.149-1.548-0.86-1.332,0c0.215,0.86-1.031-0.215-1.376-0.731
			c-0.345-0.516-7.438-1.075-2.235,5.288c0.43,1.204,1.289,2.106-0.258,2.192c-1.549,0.086,1.375-3.567-2.193-2.794
			c-2.406,2.278-1.289,1.849,0,2.322c0.613,0.224,0.745,0.188,0.768,0.165c-0.012,0.019-0.014,0.098,0.136,0.351
			c0.431,0.73,0.773,1.031,1.419,0.816c0.645-0.215,3.225,7.824,11.393,7.868c8.168-0.043,10.748-8.083,11.393-7.868
			c0.645,0.215,0.988-0.086,1.419-0.816c0.149-0.253,0.147-0.332,0.136-0.351c0.021,0.022,0.154,0.059,0.767-0.165
			C100.767,95.6,101.884,96.029,99.477,93.75z M77.423,92.418c-1.721-0.431-1.377,0.774-1.377,0.774
			c-0.215-0.603,1.634-0.817,0.86,0.516c-0.774,1.332-2.407-0.859-2.407-0.859c-2.838-3.913,1.375-3.139,1.676-3.01
			c0.301,0.129,0.947,0.989,0.947,0.989S77.769,91.577,77.423,92.418z M94.618,93.708c-0.773-1.333,1.076-1.118,0.861-0.516
			c0,0,0.343-1.205-1.377-0.774c-0.348-0.841,0.301-1.591,0.301-1.591s0.646-0.86,0.946-0.989c0.301-0.129,4.515-0.903,1.677,3.01
			C97.026,92.848,95.393,95.04,94.618,93.708z"/>
		<path fill="#231F20" d="M82.397,66.015c0,0-3.836,2.998-2.708,7.125c0,0-0.87,0-1.354-0.935c-0.482-0.935-1.225-1.806-2.578-2.063
			c0,0,1.482,0.451,1.515,1.935c0.032,1.483,0.387,2.772,1.257,2.386c0,0,1.193,4.127,0.162,4.836c0,0-0.936,0-0.968-0.774
			c-0.032-0.773,0.612-2.224-1.966-2.128c0,0,0.935,0.161,0.967,1.193c0.032,1.032-1.484,6.159,1.482,7.062s4.74,3.676,5.353,4.998
			c0,0,0.774-5.256-3.03-7.158c-3.805-1.903,1.387-2.16,0.967-5.063c0,0,0.484,1.451-0.354,2.547
			c-0.839,1.096-0.806,1.708,0.709,2.805c1.516,1.096,1.645,2.128,1.774,2.644c0,0-0.227-2.225,0.902-3.579
			c1.128-1.354,2.128-2.773,0.516-4.804S79.142,72.592,82.397,66.015z"/>
		<path fill="#231F20" d="M87.105,80.137c0,0,0.719,4.063-1.221,5.095c-1.939,1.031-1.005,3.353-0.521,4.127
			c0,0-1.031-2.386,1.709-2.741c2.74-0.355,2.064-2.096,1.87-2.612c0,0,0.064,0.483-0.548,0.967
			C88.396,84.974,88.75,83.845,87.105,80.137z"/>
		<path fill="#231F20" d="M68.212,73.527c0,0,2.482,0.097,3.191,2.58c0.709,2.482-0.322,4.772,1.58,5.288
			c1.902,0.516,2.321,0.548,2.611,1.516c0,0,0.227,1.548,1.483,1.999s2.741,1.29,2.935,2.773c0,0-0.193-1.773-5.225-1.258
			c-5.029,0.516-9.834-2.515-6.384-5.417c0,0-0.708,2.16,1.097,0.838c0,0-1.709-1.032-0.419-3.45
			C70.372,75.978,69.984,74.269,68.212,73.527z"/>
		<path fill="#231F20" d="M89.491,89.133c0,0,2.16-2.16,1.032-3.708c-1.129-1.547,1.677-3.869,2.87-5.126
			c1.192-1.257,2.32-2.934,1.772-4.514c0,0,0.194,1-0.387,2.047c-0.58,1.048-3.579,2.918-4.353,4.853c0,0,0.483-7.319,3.225-9.157
			c2.74-1.838,0.451-3.16,0.258-3.515c-0.193-0.354-1.064-1.192-0.032-2.547c0,0-0.13,1.612,0.902,2.063s4.32,1.999,2.257,5.771
			c0,0,2.063,0.355,2.547-1.096c0.484-1.451,1.291-1.773,2.031-1.644c0,0-0.967,0.418-1.096,1.225
			c-0.129,0.806,0.742,5.223-4.063,7.48c0,0,1.773-0.355,2.644-1.387c0,0-0.709,2.483-2.935,3.031
			c-2.225,0.548-2.449,1.644-2.676,2.322C93.265,85.909,91.62,87.682,89.491,89.133z"/>
		<path fill="#231F20" d="M100.583,78.525c0,0,1.322,3.224-0.516,4.256c-1.838,1.032-4.03,0.709-6.256,3.869
			c0,0,2.097-2.225,4.354-0.645c2.257,1.58,6.062-2.225,6.223-3.901c0,0-0.549,0.903-2.418,1.128
			C101.97,83.232,103.356,81.492,100.583,78.525z"/>
	</g>
	<g>
		<circle fill="#231F20" cx="38.403" cy="85.022" r="1.693"/>
		<circle fill="#231F20" cx="34.953" cy="87.408" r="1.822"/>
		<circle fill="#231F20" cx="38.467" cy="89.229" r="1.693"/>
		<circle fill="#231F20" cx="18.863" cy="73.801" r="1.757"/>
		<circle fill="#231F20" cx="12.076" cy="87.328" r="1.483"/>
		<circle fill="#231F20" cx="40.418" cy="72.463" r="1.548"/>
		<circle fill="#231F20" cx="28.875" cy="69.723" r="1.612"/>
		<path fill="#231F20" d="M33.39,100.031c0,0,1.321,2.16,1.096,3.837c-0.226,1.676,0.516,1.483,1.289,1.257
			c0.774-0.226,2.58-3.966,4.643-4.03c2.064-0.065,2.161-0.709,2.549-0.291c0.387,0.419,0.773-0.064,0-0.451
			c-0.774-0.387-2.161-0.258-2.806-0.806c-0.646-0.548-7.319-5.094-6.513-6.578c0.805-1.483,1.192-1.967,1.934-1.612
			c0.742,0.354,0.516-0.258,0.193-0.436s-1.258-0.79-0.822-1.08c0.436-0.29-0.596-0.032-1.563-1.032c-0.969-1-0.969-0.387-0.904,0
			c0.065,0.387-0.418-0.193-0.354-0.935s-0.451-0.483-0.71-0.468c-0.257,0.016-0.032-1.628,0.71-2.144
			c0.742-0.516,0.129-2.321,0.289-2.837c0.162-0.516,2.258-1.806,3.387-3.225c1.128-1.419,1.258-4.03,1.967-4.127
			s0.848-0.258,1.096-0.473c0,0-0.592,0.085-1.129,0c-0.536-0.085-1.074,0.752-1.289,0.957s-0.881,2.311-0.752,1.989
			c0.129-0.323-2.322,1.762-2.924,1.827c-0.602,0.064-1.569-3.826-1.547-4.212c0.021-0.387-0.796-0.688-0.742-1.075
			c0.054-0.387,0.87-0.968,1.322-0.881c0.451,0.086-0.215-0.388-0.193-0.602c0.021-0.215-0.131,0.345-0.345,0.43
			c-0.215,0.085-1.182,0.43-1.333,0.258c-0.15-0.173-2.902-1.656-3.181-2.107c-0.279-0.451-0.344-0.215-0.302,0
			c0.043,0.215,0.561,0.753,0.668,0.989c0.106,0.236,2.105,1.397,2.32,1.741c0.215,0.344,0.902,1.139,0.924,1.645
			s1.161,5.213,0.71,5.535c-0.452,0.323-0.58,0.903-0.71,1.246c-0.129,0.344-0.129,2.666-0.322,2.967s-0.645,0.129-0.537,0.538
			s-0.085,1.719,0.086,1.784c0.172,0.065,0.797,0.709,0.646,0.967c-0.15,0.258-1.183,1.397-1.097,1.612
			c0.086,0.215,0.795,1.419,0.666,1.741c-0.129,0.323-4.578-0.773-4.922-1.311s-4.191-3.826-4.771-4.084
			c-0.58-0.258-0.988-2.516-1.226-3.439c-0.237-0.924,0.011-4.041,0-4.202s0.376-0.935,0.827-1s0.258-0.194,0.322-0.484
			c0,0-0.516,0.194-1,0.258c-0.482,0.064-0.74,0.548-0.967,0.29c-0.225-0.258-1.258-0.903-2.031-1.322c0,0-0.451,0.452-0.161,0.645
			s2.16,1.515,2.16,1.773s-0.419,3.901-0.387,4.256c0.032,0.355,0.194,4.095,0.548,4.417c0.355,0.322,4.901,4.708,4.837,5.062
			c-0.064,0.355-4.128-0.129-4.708-0.709c-0.58-0.58-3.836-2.676-3.676-3.289c0.162-0.613,0.291-1.547,0.227-2.096
			c-0.064-0.548-0.451-0.065-0.742-0.645c0,0,0.161,1.58-0.193,2.386c-0.354,0.807-1.258,0.452-1.418,1.419
			c0,0,0.547,0.193,0.677-0.193c0.129-0.387,0.548-0.419,0.709-0.291c0.161,0.129,3.45,3.579,3.74,3.837
			c0.29,0.257,3.999,2.966,5.32,2.837c1.321-0.129,2.806-1.354,5.868-0.161C31.905,97.097,30.229,97.129,33.39,100.031z"/>
		<path fill="#231F20" d="M16.032,68.842c0,0-6.299,3.546-0.773,7.158C15.259,76,14.463,71.98,16.032,68.842z"/>
		<path fill="#231F20" d="M20.288,77.182c0,0,1.59-3.999,6.62-2.945c0,0-1.526,1.289-2.063,2.171
			C24.307,77.289,23.298,78.234,20.288,77.182z"/>
		<path fill="#231F20" d="M18.632,68.347c0,0,3.611-3.16,7.244,2.256c0,0-2.494,0.602-3.622-0.387
			C21.126,69.229,20.051,67.896,18.632,68.347z"/>
		<path fill="#231F20" d="M30.487,64.134c0,0,1.236,3.009,1.279,3.977c0.043,0.967-0.816,2.622-0.129,3.805
			C31.638,71.916,35.55,67.681,30.487,64.134z"/>
		<path fill="#231F20" d="M37.612,67.431c0,0-5.008,3.196-0.666,6.763c0,0-0.933-1.891-0.553-2.708
			C36.774,70.668,37.548,69.115,37.612,67.431z"/>
		<path fill="#231F20" d="M39.376,74.559c0,0,4.148,0.064,4.643-0.548c0.494-0.613,1.354-1.021,2.021-0.742
			c0,0-0.021,1.892-1.526,2.063s-3.01,0.129-3.396-0.194C40.729,74.817,39.935,74.688,39.376,74.559z"/>
		<path fill="#231F20" d="M8.724,78.654c0,0,2.966-0.354,4.546,2.128c1.579,2.482,0.837,4.385,1.241,4.836
			c0,0-1.725-1.322-1.982-3.031S9.465,78.589,8.724,78.654z"/>
		<path fill="#231F20" d="M12.333,90.119c0,0-4.154,2.32-3.385,7.021c0,0,2.169-1.52,2.47-4.543
			C11.72,89.575,11.938,90.907,12.333,90.119z"/>
	</g>
	<path fill="#231F20" d="M271.825,140.335c0-7.125-5.533-12.944-12.534-13.43h0.056c0,0-0.381-1.516,0-2.201h-0.001
		c0.26-0.257,0.42-0.613,0.42-1.007c0-0.784-0.635-1.418-1.419-1.418c-0.783,0-1.418,0.635-1.418,1.418
		c0,0.583,0.352,1.083,0.854,1.301l0.001,0c0.009,0.003,0.017,0.007,0.026,0.011c0.144,0.059,1.353,0.556,0.457,0.526
		c-0.952-0.032-0.968-0.226-0.727,0.338c0.242,0.564-0.197,1.02-0.293,1.028c-0.025,0.002,0.043,0.003,0.154,0.003
		c-2.091,0.146-4.048,0.763-5.768,1.754c-2.984-1.713-5.314-2.289-6.283-1.32c-0.969,0.968-0.394,3.299,1.319,6.283
		c-1.139,1.978-1.801,4.266-1.801,6.713c0,6.698,4.892,12.237,11.294,13.284c-0.442,0.51-0.719,1.164-0.719,1.893
		c0,0.629,0.898,1.008,1.985,1.143l-0.05,0.059c0,0-3.738,2.596-3.435,2.984c0.306,0.385,3.257,0.111,3.321,0.32
		c0.064,0.211,0.402,0.742-1.468,0.598s-2.917,0.145-3.515,0.129c-0.596-0.016-3.756,2.225-1.531,2.225c2.226,0,15.01,0,15.01,0
		s1.37,0,0.644-0.854c-0.725-0.855-6.966-5.48-6.966-5.48h-0.003c1.008-0.154,1.812-0.527,1.812-1.123
		c0-0.729-0.277-1.383-0.719-1.893c1.627-0.266,3.153-0.818,4.529-1.609c2.984,1.713,5.313,2.289,6.282,1.32
		c0.969-0.969,0.394-3.299-1.321-6.283C271.163,145.07,271.825,142.781,271.825,140.335z M269.633,140.335
		c0,1.625-0.351,3.167-0.97,4.563c-1.544-2.265-3.598-4.766-6.021-7.27c-0.279-3.64-1.114-6.685-2.239-8.383
		C265.652,130.213,269.633,134.805,269.633,140.335z M257.477,149.826c-1.431,0-2.644-2.693-3.08-6.432
		c0.148,0.151,0.289,0.301,0.439,0.452c1.529,1.527,3.065,2.914,4.56,4.146C258.857,149.141,258.195,149.826,257.477,149.826z
		M250.014,133.074c0.77-0.77,2.489-0.43,4.584,0.721c-0.35,1.627-0.574,3.494-0.632,5.5c-0.08,0.334-0.133,0.681-0.133,1.041
		c0,0.359,0.053,0.705,0.133,1.04c0.007,0.256,0.019,0.508,0.031,0.758C250.501,138.233,248.736,134.352,250.014,133.074z
		M257.477,130.844c1.156,0,2.169,1.759,2.746,4.403c-1.393-1.303-2.774-2.482-4.108-3.522
		C256.528,131.165,256.989,130.844,257.477,130.844z M257.688,135.887c-1.506,0.222-2.762,1.179-3.398,2.504
		c0.117-1.646,0.384-3.131,0.752-4.343C255.884,134.543,256.776,135.163,257.688,135.887z M254.289,142.277
		c0.071,0.148,0.147,0.293,0.234,0.433c-0.073-0.079-0.146-0.157-0.217-0.235C254.301,142.409,254.294,142.344,254.289,142.277z
		M255.972,144.158c0.692,0.431,1.501,0.691,2.375,0.691c0.756,0,1.458-0.204,2.083-0.531c-0.171,1.073-0.407,2.038-0.695,2.849
		C258.527,146.371,257.246,145.356,255.972,144.158z M262.729,141.375c0.029-0.124,0.046-0.252,0.065-0.381
		c2.701,3.4,3.939,6.55,2.813,7.675c-0.681,0.68-2.102,0.492-3.866-0.352C262.297,146.398,262.654,144,262.729,141.375z
		M256.292,129.246c-0.341,0.515-0.652,1.158-0.933,1.899c-0.536-0.401-1.061-0.775-1.575-1.126
		C254.577,129.667,255.416,129.407,256.292,129.246z M247.063,140.335c0-1.625,0.351-3.167,0.97-4.563
		c1.543,2.265,3.598,4.765,6.021,7.269c0.28,3.639,1.114,6.684,2.238,8.383C251.041,150.455,247.063,145.863,247.063,140.335z
		M260.404,151.424c0.34-0.516,0.651-1.158,0.932-1.9c0.536,0.402,1.061,0.775,1.575,1.127
		C262.118,151.002,261.279,151.262,260.404,151.424z"/>
	<path fill="#231F20" d="M217.421,140.571c0,0-1.414-0.958-1.916,0.547c-0.501,1.504-4.604,0.41-4.695-0.229
		c-0.092-0.638,8.024-12.95,8.48-13.953c0.457-1.003,1.367-3.739,0.821-4.286c-0.548-0.547-3.284,0.365-4.286,0.821
		c-1.004,0.457-13.315,8.573-13.953,8.481c-0.64-0.091-1.733-4.195-0.229-4.696c1.505-0.502,0.548-1.916,0.548-1.916
		c-4.97-2.325-19.789,15.504-19.789,15.504c-5.39,5.388-5.39,14.128,0,19.515c5.388,5.389,14.127,5.389,19.515,0
		C201.916,160.359,219.747,145.541,217.421,140.571z M185.867,156.895c-3.476-3.477-3.476-9.109,0-12.584
		c3.475-3.475,9.108-3.475,12.585,0c3.475,3.475,3.475,9.108,0,12.584C194.976,160.369,189.342,160.369,185.867,156.895z
		M201.916,140.844c-2.876-2.876-6.704-4.202-10.471-4.008l0.032-0.014c-0.272-1.696,6.29-6.603,6.29-6.603
		c-0.729,1.003,1.732,5.928,3.512,5.883c1.777-0.046,13.633-8.254,13.633-8.254s-8.208,11.855-8.253,13.634
		c-0.045,1.778,4.88,4.24,5.882,3.511c0,0-4.907,6.563-6.603,6.29l-0.014,0.031C206.119,147.549,204.794,143.721,201.916,140.844z"/>
	<path fill="#231F20" d="M41.753,193.111c-1.685,0.33-1.676,1.373-1.676,1.373l-0.008,0.004c0.013,1.104-0.047,2.18-0.164,3.23
		c-0.038,0.066-0.441,0.762-0.998,0.973c-0.586,0.221-15.09-5.221-21.439-11.158c0,0-0.762-0.879-1.625-0.236
		c-0.861,0.641-0.237,1.623-0.237,1.623c3.868,7.785,4.923,23.242,4.544,23.738c-0.361,0.473-1.143,0.66-1.219,0.678
		c-1.041-0.189-2.088-0.441-3.141-0.77l-0.006,0.006c0,0-0.997-0.307-1.796,1.213c0,0-0.775,1.699,0.423,2.174
		c7.549,2.363,15.111,1.697,20.854-2.58l0,0c0,0,0,0,0.001,0c5.741-4.275,8.549-11.328,8.448-19.238
		C43.602,192.855,41.753,193.111,41.753,193.111z M37.548,205.422c-1.106,1.992-2.573,3.725-4.414,5.096l0,0h-0.001
		c-1.841,1.371-3.921,2.279-6.147,2.768c-2.781,0.207-2.861-1.766-2.861-1.766c-0.461-8.719-1.981-13.902-2.903-16.32l0.001-0.002
		c0,0-0.354-1.025,0.579-0.537c0.001,0,0.001,0,0.001,0c2.021,1.563,6.564,4.539,14.874,7.514
		C36.676,202.174,38.543,202.814,37.548,205.422z"/>
	<path fill="#231F20" d="M101.454,195.082c-1.677,0-1.936,1.033-1.936,1.807s1.807,1.74,1.807,4.836s-2.387,5.158-5.74,5.158
		c-3.353,0-5.416-3.354-5.416-5.416c0-2.064,0.902-4.9,4.965-6.9c4.063-1.998,2.129-2.967-1.999-4.514
		c-4.127-1.547-6.126-2.064-8.061-2.127c-1.935,0.063-3.934,0.58-8.061,2.127s-6.062,2.516-1.999,4.514
		c4.063,2,4.965,4.836,4.965,6.9c0,2.063-2.063,5.416-5.416,5.416s-5.74-2.063-5.74-5.158s1.807-4.063,1.807-4.836
		s-0.258-1.807-1.936-1.807c-1.676,0-3.74,1.74-3.74,6.643c0,4.9,3.676,9.545,9.674,9.545c5.996,0,9.607-5.547,9.607-9.867
		s-3.611-6.643-4.385-7.674s5.224-1.482,5.224-1.482s5.997,0.451,5.224,1.482s-4.385,3.354-4.385,7.674s3.611,9.867,9.607,9.867
		c5.998,0,9.674-4.645,9.674-9.545C105.194,196.822,103.13,195.082,101.454,195.082z"/>
	<path fill="#231F20" d="M217.344,204.361c-1.557,1.148-10.714,6.176-7.764,1.064c1.035-1.793,1.514-3.752,1.511-5.684l0.01,0.01
		c0,0,0.517-16.314-16.767-18.572c0,0-1.161,0.258,0.612,1.031c1.773,0.775,10.705,6.191,4.805,6.191l0.008,0.008
		c-1.994,0-3.958,0.527-5.686,1.525l0.003-0.012c0,0-14.387,7.709-7.7,23.805c0,0,0.804,0.877,0.587-1.047
		c-0.216-1.922,0.009-12.365,2.959-7.256l0.003-0.012c0.964,1.674,2.358,3.131,4.151,4.168c0,0,13.871,8.604,24.467-5.234
		C218.543,204.348,218.899,203.213,217.344,204.361z M193.831,196.334c1.888-3.27,6.067-4.389,9.338-2.502
		c3.27,1.889,4.39,6.068,2.502,9.338c-1.887,3.27-6.068,4.391-9.338,2.502S191.943,199.604,193.831,196.334z"/>
	<path fill="#231F20" d="M37.569,135.309c-2.321,0.774-2.493,2.107-3.482,2.107c-0.988,0-0.945-1.548-0.945-1.548s0-5.417,0-8.427
		s0.516-3.181-1.333-3.697s-1.591,0.903-1.591,0.903s0,9.286,0,11.393c0,2.106-3.138,2.192-3.138,2.192s-3.139-0.086-3.139-2.192
		c0-2.107,0-11.393,0-11.393s0.259-1.419-1.591-0.903c-1.848,0.516-1.332,0.687-1.332,3.697s0,8.427,0,8.427s0.043,1.548-0.945,1.548
		c-0.989,0-1.162-1.333-3.482-2.107c-2.322-0.773-2.623,1.677-2.15,2.15c0.474,0.473,5.331,11.737,5.719,12.983
		c0.387,1.246,3.782,11.48,4.041,11.781c0.258,0.301,0.473,1.805,2.88,1.805s2.622-1.504,2.88-1.805s3.654-10.535,4.041-11.781
		s5.245-12.51,5.719-12.983C40.192,136.985,39.892,134.535,37.569,135.309z M34.388,142.446c-0.516,0,0.473,0.558,0,1.031
		c-0.473,0.474-4.256,5.111-5.115,5.111s-0.645,1.639-0.215,1.639s0.988,0.645,0.988,2.795c0,0.662-0.287,1.576-0.678,2.52
		c-2.141,4.561-4.304,0.545-4.568,0.018c-0.395-0.949-0.686-1.871-0.686-2.537c0-2.15,0.559-2.795,0.988-2.795
		s0.645-1.639-0.215-1.639s-4.643-4.637-5.116-5.111c-0.473-0.473,0.517-1.031,0-1.031c-0.516,0-1.29-1.118-0.602-1.118
		s1.204-0.043,1.204-1.204c0-1.161,0.473-0.86,1.375-0.86s1.097,0.022,1.419,0.344c0.322,0.323,0.042,1.763,3.912,1.763
		c3.869,0,3.589-1.44,3.911-1.763c0.323-0.322,0.517-0.344,1.42-0.344c0.902,0,1.375-0.3,1.375,0.86c0,1.16,0.516,1.204,1.204,1.204
		C35.678,141.328,34.903,142.446,34.388,142.446z"/>
	<g>
		<path fill="#231F20" d="M95.327,125.116H74.112c0,0-4.773,0.258-4.773,4.643c0,4.385,3.612,1.354,4.063,0.902
			s0.194-0.774,1.097-0.774s19.668,0,19.668,0s1.16-0.128,1.16,1.935c0,2.064,0,19.668,0,19.668s-1.998,8.318-10.511,8.318
			s-11.156-3.289-11.479-3.74s-3.159-0.258-0.71,2.516C75.079,161.357,77.788,164,84.3,164c6.514,0,16.058-6.512,16.058-12.316
			s0-20.054,0-20.054s-0.002-0.688,0.536-1.226s0.41-0.623,0.41-0.988s0.014-3.59,0.014-3.59s-0.078-0.709-0.788-0.709
			s-0.194-2.278-2.837-2.278C95.048,122.838,95.93,124.686,95.327,125.116z"/>
		<path fill="#231F20" d="M77.508,152.379c0,0.4-0.577,0.725-1.29,0.725l0,0c-0.713,0-1.289-0.324-1.289-0.725v-17.296
			c0-0.4,0.576-0.724,1.289-0.724l0,0c0.713,0,1.29,0.324,1.29,0.724V152.379z"/>
		<path fill="#231F20" d="M84.644,152.379c0,0.4-0.576,0.725-1.289,0.725l0,0c-0.713,0-1.29-0.324-1.29-0.725v-17.296
			c0-0.4,0.577-0.724,1.29-0.724l0,0c0.713,0,1.289,0.324,1.289,0.724V152.379z"/>
		<path fill="#231F20" d="M91.222,152.379c0,0.4-0.577,0.725-1.289,0.725l0,0c-0.713,0-1.29-0.324-1.29-0.725v-17.296
			c0-0.4,0.577-0.724,1.29-0.724l0,0c0.712,0,1.289,0.324,1.289,0.724V152.379z"/>
	</g>
	<g>
		<g>
			<path fill="#231F20" d="M146.043,194.564l0.695-1.621l0.695-1.619c0.534-1.318,1.371-3.227,0.044-3.096
				c-1.756,0.174-11.035-2.576-12.607-3.107c-1.404-0.475-9.175-4.193-15.832-4.82c-0.258-0.008-0.859,0.02-1.008,0.313
				c-0.11,0.311,0.285,0.764,0.467,0.945c5.037,4.398,13.086,7.473,14.397,8.166c1.468,0.771,9.851,5.607,10.932,6.998
				C144.647,197.779,145.454,195.859,146.043,194.564z"/>
			<path fill="#231F20" d="M148.964,187.721c0.1,0.432-0.319,3.34-0.515,4.164l0.023,0.01l-0.071,0.166
				c-0.072,0.217-0.155,0.4-0.238,0.555l-0.154,0.359l-0.186,0.436l-0.189,0.436l-0.154,0.359c-0.053,0.166-0.128,0.352-0.237,0.555
				l-0.071,0.166l-0.022-0.012c-0.465,0.709-2.285,3.016-2.667,3.24c-0.409,0.24,0.047,0.77,0.869,0.699
				c0.817-0.072,2.506-3.469,3.181-3.732c0.674-0.264,0.097,1.014,0.892,1.012c0.793,0.002,10.478,3.551,11.057,3.719
				c0.577,0.168,0.601,0.313,0.241,1.084c-0.364,0.771,0.119,0.844,1.058,0.891c0,0,0.084,0.006,0.214-0.035
				c0.072-0.021,0.141-0.053,0.206-0.096c0.037-0.021,0.074-0.041,0.113-0.068c0.008-0.008,0.017-0.014,0.022-0.021
				c0.295-0.217,0.672-0.643,1.047-1.516c0.373-0.869,0.425-1.434,0.378-1.797c0-0.012-0.001-0.021-0.001-0.031
				c-0.008-0.051-0.018-0.09-0.026-0.133c-0.017-0.072-0.039-0.145-0.074-0.213c-0.061-0.123-0.122-0.182-0.122-0.182
				c-0.681-0.646-1.065-0.945-1.375-0.154c-0.311,0.795-0.431,0.879-0.953,0.574c-0.521-0.305-9.76-4.883-10.309-5.459
				c-0.547-0.576-1.074,0.721-1.346,0.049c-0.274-0.67,1.026-4.234,0.514-4.875C149.554,187.225,148.856,187.256,148.964,187.721z"/>
		</g>
		<g>
			<path fill="#231F20" d="M137.786,207.533l0.696-1.619l0.696-1.621c0.589-1.295,1.396-3.217,2.217-2.16
				c1.08,1.391,9.463,6.229,10.932,7c1.313,0.693,9.358,3.768,14.396,8.164c0.185,0.182,0.58,0.637,0.47,0.945
				c-0.149,0.293-0.752,0.32-1.01,0.314c-6.655-0.627-14.429-4.346-15.832-4.822c-1.571-0.531-10.852-3.279-12.605-3.105
				C136.416,210.76,137.254,208.852,137.786,207.533z"/>
			<path fill="#231F20" d="M140.739,200.703c-0.381,0.223-2.201,2.529-2.666,3.24l-0.022-0.012l-0.072,0.166
				c-0.108,0.203-0.184,0.387-0.238,0.555l-0.155,0.359l-0.186,0.436l-0.188,0.438l-0.154,0.357
				c-0.084,0.152-0.166,0.336-0.238,0.555l-0.071,0.164l0.024,0.01c-0.195,0.826-0.615,3.734-0.516,4.166
				c0.107,0.465-0.59,0.494-1.104-0.148c-0.511-0.643,0.789-4.205,0.517-4.877c-0.273-0.672-0.8,0.627-1.349,0.051
				c-0.547-0.576-9.789-5.156-10.309-5.459c-0.52-0.305-0.641-0.221-0.951,0.572s-0.694,0.494-1.377-0.154c0,0-0.06-0.057-0.12-0.182
				c-0.034-0.066-0.059-0.139-0.073-0.213c-0.01-0.041-0.02-0.082-0.027-0.131c0-0.01,0-0.021-0.001-0.033
				c-0.047-0.361,0.005-0.928,0.378-1.795c0.375-0.873,0.749-1.301,1.045-1.516c0.008-0.008,0.016-0.016,0.023-0.023
				c0.041-0.027,0.076-0.047,0.112-0.068c0.067-0.041,0.134-0.074,0.207-0.094c0.13-0.041,0.214-0.037,0.214-0.037
				c0.939,0.047,1.422,0.121,1.061,0.893c-0.363,0.77-0.339,0.916,0.238,1.084c0.578,0.168,10.263,3.717,11.057,3.717
				c0.797,0,0.219,1.277,0.893,1.014c0.675-0.266,2.363-3.66,3.182-3.732C140.692,199.932,141.148,200.461,140.739,200.703z"/>
		</g>
	</g>
	<g>
		<path fill="#231F20" d="M245.797,190.418c0,0,13.866,9.594,14.079,9.742c0.212,0.146,0.504,0.348,0.648,0.762
			s0.337,5.291-0.033,5.545c-0.372,0.252-2.215,1.84-2.653,1.85c-0.438,0.01-5.36,1.23-5.461-1.23s-0.184-4.834,0.738-4.979
			c0.925-0.145,2.979,0.061,2.924,0.65c-0.056,0.59-0.447,2.514,0.306,2.447c0.752-0.068,0.875,0.096,0.863-0.852
			c-0.009-0.949,0.224-1.455-0.493-1.951c-0.716-0.496-12.354-8.549-12.354-8.549s-0.773-0.811-0.147-2.338
			S245.347,190.104,245.797,190.418z"/>
		<path fill="#231F20" d="M269.68,204.066c0.011-0.006,0.015-0.01,0.025-0.016c3.973-2.049,0.746-4.609,0.729-4.625l-25.145-17.398
			c-0.464-0.32-1.036-0.402-2.178,1.219s-0.158,2.156-0.158,2.156s20.167,13.957,21.51,14.887c1.345,0.93,2.347,1.52,1.417,2.184
			c-3.477,2.457-3.891,3.582-3.836,4.561c0.055,0.98,2.236,4.213,3.57,5.607c1.336,1.395,0.574,1.627-0.221,2.434
			c-0.795,0.809-2.771-2.91-3.563-4.557c-0.794-1.648-2.701-0.064-3.633,0.414c-0.933,0.48,1.184,4.219,3.437,7.764
			c2.252,3.545,4.687,0.707,7.337-2.557c2.649-3.264-2.453-8.127-2.992-9.049C265.588,206.418,267.602,205.16,269.68,204.066z"/>
	</g>
	<path fill="#231F20" d="M159.319,84.834c0,0,0-14.982,0-17.013c0-2.032-1.516-1.87-2.419-1.87c-0.902,0-1.162,0.548-1.162,1.162
		c0,0.614-1.643,2.03-2.03,2.03c-0.387,0-6.383,0-6.996,0s-1.87,0.226-1.87-1.87c0-1.818-1.622-1.986-2.053-1.998v-0.001
		c0,0-0.013,0-0.014,0c-0.025,0-0.024,0-0.04,0s-0.015,0-0.04,0c-0.002,0-0.013,0-0.013,0v0.001c-0.432,0.012-2.055,0.18-2.055,1.998
		c0,2.096-1.257,1.87-1.869,1.87c-0.613,0-6.609,0-6.997,0c-0.387,0-2.029-1.416-2.029-2.03c0-0.614-0.26-1.162-1.163-1.162
		c-0.902,0-2.418-0.162-2.418,1.87c0,2.031,0,17.013,0,17.013s-0.606,13.02,14.48,20.348c0.246,0.103,1.106,0.431,2.051,0.455v0.004
		c0.018,0,0.035-0.001,0.053-0.001s0.035,0.001,0.054,0.001v-0.004c0.944-0.024,1.804-0.352,2.05-0.455
		C159.926,97.854,159.319,84.834,159.319,84.834z M140.962,74.517c0,0,0,23.387,0,24.031c0,0.645-0.215,1.161-1.634,0.86
		c-7.743-6.03-8.463-11.083-8.512-12.401c0-3.108,0-10.194,0-12.189c0-2.58,1.118-2.278,1.118-2.278h7.394
		C141.177,72.539,140.962,74.517,140.962,74.517z M154.654,87.007c-0.049,1.318-0.769,6.372-8.512,12.401
		c-1.42,0.3-1.633-0.215-1.633-0.86c0-0.645,0-24.031,0-24.031s-0.216-1.978,1.633-1.978h7.395c0,0,1.117-0.301,1.117,2.278
		C154.654,76.813,154.654,83.899,154.654,87.007z"/>
	<path fill="#231F20" d="M158.427,247.574c-1.161-0.193-0.807,1.611,0.129,5.396c0.935,3.785-0.226,4.889-1.193,4.984
		c-0.967,0.098-3.353-1.773-4.868-2.063c-1.516-0.291-4.45,0.289-5.288-0.547c-0.838-0.84-2.482-7.578-4.03-7.578
		s-3.288,7.318-3.675,8.092c-0.388,0.775-1.387,0.195-2.096,0.58c-0.71,0.389-5.32-0.902-5.837-2.225
		c-0.517-1.32-0.322-2.127-0.87-2.836c-0.549-0.709-1.246-0.316-0.352-1.77c0.894-1.453,1.512-0.682,5.123-3.615
		s8.093-3.32,8.093-3.32c2.042-0.238,5.954,0.494,6.728,0.752c0.774,0.258,1.85,0.43,2.537-0.387
		c0.688-0.816-4.342-3.828-7.137-4.215c-2.794-0.387-6.319,0.045-9.199,1.076c-2.881,1.031-6.336,3.143-9.842,7.006
		s-3.723,11.824-3.723,11.824s-0.192,7.242,5.439,11.242c1.182,0.58,2.697,0.326,2.923-0.15c0.226-0.479,0.172-1.096-0.237-1.441
		c-0.408-0.344-3.546-4.186-3.546-9.65c0-1.064,0.226-1.387,1.128-1.678c0.903-0.289,2.193,1.258,3.063,2.129
		c0.87,0.869,4.128,1.031,6.095,1.096c1.966,0.064,0.902,6.738,1.354,7.578c0.451,0.838,6.803,0.354,8.061,0.418
		s1.87-1.773,1.483-2.74s-0.549-4.74-0.549-5.256s0.903-0.354,2.322-0.74c1.418-0.389,2.515,0.869,3.288,1.707
		c0.774,0.84,6.224,3.387,1,8.609c-5.223,5.225-9.061,4.934-11.188,4.934s-7.642-0.711-8.351,0.451
		c-0.709,1.16,3.644,3.74,8.351,4.127c14.961,0,20.622-15.605,20.622-21.406C164.185,252.16,159.587,247.768,158.427,247.574z
		M144.573,264.619c-0.559-0.043-2.021,0.344-1.978-0.516c0.043-0.859-0.174-4.73-0.001-5.803c0.172-1.076,0.302-2.021,0.302-2.021
		s0.516-2.107,1.247-0.387s0.688,1.891,0.773,3.354C145.003,260.707,145.132,264.662,144.573,264.619z"/>
	<path fill="#231F20" d="M33.431,249.865c-0.468-0.656,1.308-1.311,4.951-5.188c3.645-3.877-8.783,1.447-9.086,1.33
		s-1.028-6.445-1.262-7.73s-0.91-1.215-0.91-1.215s-0.679-0.07-0.912,1.215c-0.232,1.285-0.957,7.613-1.261,7.73
		s-12.73-5.207-9.087-1.33c3.645,3.877,5.419,4.531,4.952,5.188c-0.467,0.652-12.567,7.975-9.903,8.441
		c2.662,0.469,12.752-5.744,13.453-3.875c0.701,1.867,0,1.814,0,1.814s-2.148,2.609-3.27,3.029s-4.167,1.775-2.271,4.064
		s4.186,6.006,6.382,11.285c2.195,5.279,0.793,7.699,1.916,7.699c1.121,0-0.281-2.42,1.914-7.699
		c2.197-5.279,4.486-8.996,6.383-11.285c1.896-2.289-1.15-3.645-2.271-4.064s-3.27-3.029-3.27-3.029s-0.701,0.053,0-1.814
		c0.701-1.869,10.792,4.344,13.455,3.875C45.997,257.84,33.897,250.518,33.431,249.865z M30.44,262.189
		c0.888,0.234,0.094,0.793,0,0.98s-2.756,2.521-2.896,3.129c-0.559,0.787-0.842,0-0.842,0c-0.14-0.607-2.803-2.941-2.896-3.129
		c-0.093-0.188-0.887-0.746,0-0.98c0.888-0.236,2.43-2.195,2.663-2.496s0.655-0.354,0.655-0.354s0.42,0.053,0.654,0.354
		C28.011,259.994,29.553,261.953,30.44,262.189z"/>
	<g>
		<path fill="#231F20" d="M87.653,247.67c0,0-8.544,0-11.994,0s-3.096,2.064-3.096,2.064s0,6.609,0,8.576s0.903,2.482,1.709,2.482
			c0.534,0,0.994,0.008,1.32-0.244c1.17-0.52,1.099-1.689,1.099-1.689s0-4.096,0-5.418s1.354-1.58,1.354-1.58s4.611,0,6.448,0
			c1.839,0,1.58,0.969,1.58,0.969s0,11.93,0,13.412c0,1.484-1.354,1.355-1.354,1.355s-4.418,0-6.416,0c-2,0-1.967-1.098-1.967-1.098
			c0-1.482,0.322-3.676-1.549-3.385c-0.362,0.057-4.256,2.449-6.416,7.223c-2.16,4.771,0.936,1.611,1.548,0.934
			c0.612-0.676,3.257-3.416,3.579-2.418c0.064,2.58,1.354,2.484,1.354,2.484s8.738,0,11.963,0s3.225-4,3.225-4s0-13.154,0-16.412
			C90.04,247.67,87.653,247.67,87.653,247.67z"/>
		<path fill="#231F20" d="M104.355,246.801c-0.481-0.709-4.846,0.227-7.122,1.578c-0.002,0.002-0.002,0-0.003,0.002
			c-0.989,0.508-1.065-0.711-1.065-0.711c0-0.188,0-0.791,0-2.514c0-3.289-3.965-2.967-3.965-2.967c-3.45,0-10.802,0-10.802,0
			s-1.741-0.16-1.741,1.902s2.064,1.807,3.45,1.807h6.933c0,0,2.385,0.063,2.385,2.836s0,13.51,0,13.51s0.259,1.838,1.936,1.838
			s1.838-1.451,1.838-2.225s0-6.867,0-6.867s-0.129-2.225,2.289-3.934S104.903,247.605,104.355,246.801z"/>
	</g>
	<g>
		<circle fill="#231F20" cx="203.514" cy="270.682" r="4.085"/>
		<path fill="#231F20" d="M203.513,282.375c0,0,1.764-0.494,1.764-2.236c0-1.74-1.097-0.967-2.58-1.547s-5.804-2.148-5.804-7.91
			s4.987-7.953,6.62-7.953c1.635,0,4.858,1.547,5.632,1.031c0.774-0.516,1.097-1.031,0-1.998c-1.096-0.969-3.958-1.746-4.172-2.68
			c-0.213-0.932-1.567-21.117-2.405-22.535s-1.354-0.902-1.677,4.836c-0.322,5.74-0.752,17.188-2.213,18.654
			c-1.463,1.465-4.622,2.691-5.912,8.172c-1.29,5.482,1.741,9.287,3.546,10.77C198.118,280.461,200.591,282.289,203.513,282.375z"/>
		<path fill="#231F20" d="M191.991,262.17c0.787-0.199,0.774,1.461,0,1.977c-0.773,0.516-1.805,3.871-1.805,6.535
			c0,2.666,1.72,6.793,3.267,8.082c1.548,1.289-2.492,2.148-4.471-1.893c-1.548-0.258-3.246,2.43-3.795,1.881
			c-0.548-0.547,2.549-3.063,2.258-3.74c-0.29-0.676-0.451-2.127-0.613-3.16c-0.16-1.031-5.642-1.934-5.803-2.805
			c-0.162-0.869,5.319-1.387,5.836-1.611c0.516-0.227,0.999-1.549,1.386-2.193c0.388-0.645,0.613-1.418,0.388-1.676
			s-3.521-3.82-2.902-4.438C186.354,258.51,190.767,262.48,191.991,262.17z"/>
	</g>
	<g>
		<circle fill="#231F20" cx="140.79" cy="132.403" r="3.934"/>
		<path fill="#231F20" d="M133.696,138.529c-0.752,1.111,0.967,3.611,2.451,4.32c1.482,0.709,3.256,1.296,3.805,1.648
			c0.548,0.352,0.676,0.642,0.676,1.544s0,16.734,0,16.734s-0.096,1.258,1.968,1.258c2.063,0,2.128-1.967,2.128-4.063
			s0-14.154,0-14.154s-0.094-1.463,1.106-2.385c1.198-0.921,7.084-5.322,7.084-11.029s-7.124-9.834-9.704-9.608
			c-2.582,0.226-1.356,1.387-0.227,2.031c1.128,0.645,3.642,2.096,4.868,4.289c1.225,2.192,0.87,3.772,0.548,4.675
			c-0.322,0.902-2.193,3.546-3.676,4.514c-1.483,0.967-3.934,1.548-5.61,1.387C137.437,139.528,134.438,137.433,133.696,138.529z"/>
	</g>
	<path fill="#231F20" d="M276.143,74.41c-3.361-5.338-6.195-6.261-7.053-6.261c-0.856,0-2.239,1.187-2.701,2.833
		c-0.462,1.648-4.35,6.392-8.105,6.458c-3.756-0.066-7.646-4.811-8.106-6.458c-0.461-1.647-1.845-2.833-2.701-2.833
		c-0.857,0-3.69,0.923-7.052,6.261c-3.36,5.338-3.163,9.951-3.163,9.951s-0.197,4.613,3.163,9.951
		c3.361,5.338,6.194,6.261,7.052,6.261c0.856,0,2.24-1.187,2.701-2.834s4.351-6.392,8.106-6.458c3.756,0.066,7.644,4.811,8.105,6.458
		s1.845,2.834,2.701,2.834c0.857,0,3.691-0.922,7.053-6.261c3.36-5.338,3.163-9.951,3.163-9.951S279.503,79.748,276.143,74.41z
		M274.131,87.088c-0.323,1.389-0.821,3.024-1.547,4.193c-1.517,2.438-2.109,3.493-3.823,1.384
		c-3.69-6.854-10.478-5.799-10.478-5.799s-6.788-1.054-10.478,5.799c-1.715,2.109-2.307,1.055-3.823-1.384
		c-0.727-1.169-1.224-2.804-1.547-4.193c-0.417-1.722,0.013-5.446,0.025-5.559c0.323-1.366,0.813-2.948,1.521-4.088
		c1.517-2.438,2.108-3.493,3.823-1.384c3.689,6.854,10.478,5.799,10.478,5.799s6.787,1.054,10.478-5.799
		c1.714-2.109,2.307-1.055,3.823,1.384c0.708,1.14,1.198,2.722,1.521,4.088C274.118,81.642,274.546,85.366,274.131,87.088z"/>
	<g>
		<path fill="#231F20" d="M199.041,66.735c0,0-15.563,12.381-16.766,14.101c-1.203,1.719-2.493,4.729-1.203,5.417
			c1.289,0.688,4.47-1.376,6.878-3.095c2.408-1.72,12.982-11.608,14.961-13.414c1.978-1.806,2.322-4.814,1.892-5.072
			C204.373,64.414,204.113,63.296,199.041,66.735z"/>
		<path fill="#231F20" d="M206.521,76.852c0,0-15.563,12.381-16.766,14.101c-1.203,1.72-2.493,4.729-1.203,5.417
			c1.289,0.688,4.469-1.376,6.878-3.096c2.408-1.719,12.982-11.607,14.96-13.413c1.979-1.806,2.323-4.815,1.893-5.073
			S211.594,73.413,206.521,76.852z"/>
		<path fill="#231F20" d="M214.604,85.988c0,0-15.563,12.381-16.766,14.101c-1.204,1.72-2.493,4.729-1.204,5.417
			c1.29,0.688,4.471-1.376,6.878-3.095c2.409-1.72,12.983-11.607,14.961-13.413c1.979-1.806,2.322-4.815,1.893-5.073
			C219.935,83.667,219.677,82.549,214.604,85.988z"/>
	</g>
	<g>
		<path fill="#231F20" d="M153.091,24.603c0,0,9.285-0.517,11.005-14.531c0,0-1.72,0.946-3.268,1.376c0,0-1.117,4.386-4.643,6.535
			c0,0,2.666-2.321,2.838-6.535c0,0-4.3,0.773-5.933-0.344c-1.635-1.117,0.343-1.719,0.601-2.235
			c0.258-0.516,0.689-0.945-0.688-2.063c-1.377-1.118-2.235,0.171-2.751,1.719c-0.516,1.547-1.634-1.633-2.408,0.086
			c-0.773,1.72-3.353,4.041-1.118,3.87c2.237-0.172,0.688,0.085-0.084,1.203c-0.775,1.118-9.46,15.047-17.197,22.355
			c-7.739,7.308-4.729,6.534-2.321,10.49c0,0,0.602,0.86,1.203-0.946s12.812-18.056,15.563-22.957
			c2.753-4.901,5.074-7.48,6.019-7.567C150.854,14.972,153.864,18.498,153.091,24.603z"/>
		<g>
			<path fill="#231F20" d="M132.407,24.603c-0.774-6.104,2.235-9.63,3.182-9.544c0.884,0.081,2.973,2.343,5.49,6.646
				c0.557-0.787,1.088-1.55,1.59-2.278c-2.086-3.05-3.52-5.32-3.813-5.744c-0.774-1.118-2.321-1.375-0.086-1.203
				c2.236,0.171-0.343-2.15-1.117-3.87c-0.774-1.719-1.892,1.461-2.408-0.086c-0.517-1.548-1.376-2.837-2.751-1.719
				c-1.376,1.118-0.945,1.547-0.688,2.063c0.258,0.516,2.235,1.118,0.602,2.235c-1.635,1.118-5.934,0.344-5.934,0.344
				c0.172,4.213,2.838,6.535,2.838,6.535c-3.525-2.149-4.643-6.535-4.643-6.535c-1.549-0.43-3.268-1.376-3.268-1.376
				C123.12,24.086,132.407,24.603,132.407,24.603z"/>
			<path fill="#231F20" d="M156.052,36.038c-4.008-3.786-8.269-9.346-11.554-13.984c-0.073,0.129-0.146,0.253-0.221,0.385
				c-0.343,0.61-0.821,1.383-1.392,2.266c4.104,6.335,13.75,19.277,14.283,20.877c0.602,1.806,1.205,0.946,1.205,0.946
				C160.78,42.572,163.79,43.346,156.052,36.038z"/>
		</g>
	</g>
</svg>
